<svg xmlns="http://www.w3.org/2000/svg" width="25" height="25" viewBox="0 0 25 25" fill="none">
                            <path d="M25 12.5C25 19.4036 19.4036 25 12.5 25C5.59644 25 0 19.4036 0 12.5C0 5.59644 5.59644 0 12.5 0C19.4036 0 25 5.59644 25 12.5Z" fill="#64FFDA" />
                            <path d="M10.5 16.25V24.75C10.5 24.8881 10.6119 25 10.75 25H14.25C14.3881 25 14.5 24.8881 14.5 24.75V16.25C14.5 16.1119 14.6119 16 14.75 16H17.25C17.3881 16 17.5 15.8881 17.5 15.75V12.75C17.5 12.6119 17.3881 12.5 17.25 12.5H14.75C14.6119 12.5 14.5 12.3882 14.5 12.2502V10C14.5 9 15.75 8.5 16.25 8.5H17.75C17.8881 8.5 18 8.38807 18 8.25V5.25C18 5.11193 17.8881 5 17.75 5H14.5C12.1 5 10.5 7.5 10.5 9V12.25C10.5 12.3881 10.3881 12.5 10.25 12.5H7.75C7.61193 12.5 7.5 12.6119 7.5 12.75V15.75C7.5 15.8881 7.61193 16 7.75 16H10.25C10.3881 16 10.5 16.1119 10.5 16.25Z" fill="black" fill-opacity="0.9" />
                        </svg>