<svg xmlns="http://www.w3.org/2000/svg" width="25" height="25" viewBox="0 0 25 25" fill="none">
                            <path d="M0 3.5C0 1.567 1.567 0 3.5 0H21.5C23.433 0 25 1.567 25 3.5V21.5C25 23.433 23.433 25 21.5 25H3.5C1.567 25 0 23.433 0 21.5V3.5Z" fill="#64FFDA" />
                            <path d="M9 6.75C9 7.99264 7.99264 9 6.75 9C5.50736 9 4.5 7.99264 4.5 6.75C4.5 5.50736 5.50736 4.5 6.75 4.5C7.99264 4.5 9 5.50736 9 6.75Z" fill="black" fill-opacity="0.9" />
                            <path d="M5 10.5C5 10.2239 5.22386 10 5.5 10H8C8.27614 10 8.5 10.2239 8.5 10.5V20C8.5 20.2761 8.27614 20.5 8 20.5H5.5C5.22386 20.5 5 20.2761 5 20V10.5Z" fill="black" fill-opacity="0.9" />
                            <path d="M10.5 10L12.75 10C13.0261 10 13.25 10.2239 13.25 10.5V11C14.25 9.75001 16.0833 9.66666 17 9.74999C19.8577 10.0098 20.3333 12.9167 20.25 14.5L20.25 20C20.25 20.2761 20.0261 20.5 19.75 20.5L17.5 20.5C17.2239 20.5 17 20.2762 17 20V14.5C16.9167 13.8333 16.45 12.5 15.25 12.5C14.05 12.5 13.3333 14 13.25 14.5V20C13.25 20.2762 13.0261 20.5 12.75 20.5L10.5 20.5C10.2239 20.5 10 20.2761 10 20V10.5C10 10.2239 10.2239 10 10.5 10Z" fill="black" fill-opacity="0.9" />
                        </svg>