<svg xmlns="http://www.w3.org/2000/svg" width="25" height="20" viewBox="0 0 25 20" fill="none">
                            <path d="M10 14.2877V5.71232L16.5 10L10 14.2877Z" fill="black" fill-opacity="0.9" />
                            <path d="M24.4726 3.12245C24.3303 2.51841 24.0517 1.96767 23.6647 1.52534C23.2777 1.08302 22.7958 0.764629 22.2673 0.602041C20.321 1.40246e-07 12.5 0 12.5 0C12.5 0 4.67899 1.40246e-07 2.73267 0.602041C2.20416 0.764629 1.72229 1.08302 1.33527 1.52534C0.948262 1.96767 0.669686 2.51841 0.527429 3.12245C0.164007 5.39109 -0.0123516 7.6937 0.000671781 10C-0.0123516 12.3063 0.164007 14.6089 0.527429 16.8776C0.669686 17.4816 0.948262 18.0323 1.33527 18.4747C1.72229 18.917 2.20416 19.2354 2.73267 19.398C4.67899 20 12.5 20 12.5 20C12.5 20 20.321 20 22.2673 19.398C22.7958 19.2354 23.2777 18.917 23.6647 18.4747C24.0517 18.0323 24.3303 17.4816 24.4726 16.8776C24.836 14.6089 25.0124 12.3063 24.9993 10C25.0124 7.6937 24.836 5.39109 24.4726 3.12245ZM10.0001 14.2857V5.71429L16.4909 10L10.0001 14.2857Z" fill="#64FFDA" />
                        </svg>