<svg width="508" height="443" viewBox="0 0 508 443" fill="none" xmlns="http://www.w3.org/2000/svg">
<g clip-path="url(#clip0_84_103)">
<path d="M237.739 435.5C237.92 435.508 238.099 435.461 238.253 435.364C238.406 435.266 238.526 435.125 238.596 434.957C238.666 434.79 238.682 434.605 238.644 434.427C238.605 434.25 238.513 434.089 238.38 433.965L238.319 433.724L238.343 433.666C238.526 433.235 238.832 432.867 239.223 432.609C239.614 432.35 240.072 432.214 240.541 432.215C241.009 432.217 241.466 432.357 241.855 432.618C242.244 432.879 242.548 433.25 242.727 433.682C243.444 435.41 244.357 437.141 244.581 438.968C244.68 439.775 244.639 440.594 244.458 441.387C246.142 437.712 247.016 433.717 247.022 429.674C247.022 428.659 246.966 427.645 246.853 426.637C246.76 425.81 246.631 424.99 246.465 424.175C245.563 419.754 243.625 415.61 240.811 412.083C239.449 411.34 238.348 410.196 237.655 408.807C237.404 408.308 237.227 407.775 237.129 407.224C237.427 406.437 237.584 405.602 237.592 404.76C237.806 404.435 238.19 404.273 238.423 403.956C239.586 402.378 241.189 402.654 242.025 404.798C243.812 405.7 243.829 407.196 242.733 408.636C242.035 409.551 241.939 410.79 241.327 411.771C241.39 411.851 241.456 411.93 241.519 412.01C242.67 413.491 243.673 415.081 244.514 416.758C244.309 414.88 244.554 412.979 245.226 411.214C245.908 409.568 247.186 408.182 248.311 406.76C248.608 406.378 249.013 406.092 249.472 405.94C249.932 405.788 250.426 405.775 250.893 405.904C251.36 406.033 251.778 406.297 252.095 406.664C252.411 407.03 252.612 407.482 252.672 407.963L252.679 408.026C252.512 408.12 252.348 408.22 252.188 408.326C251.987 408.461 251.831 408.653 251.741 408.877C251.651 409.102 251.631 409.348 251.683 409.585C251.735 409.821 251.858 410.036 252.034 410.201C252.211 410.367 252.433 410.475 252.672 410.512L252.696 410.516C252.637 411.118 252.532 411.716 252.382 412.303C253.825 417.888 250.709 419.923 246.259 420.014C246.161 420.064 246.065 420.115 245.967 420.163C246.812 422.559 247.342 425.054 247.543 427.587C247.658 429.081 247.651 430.582 247.523 432.075L247.531 432.022C247.853 430.362 248.738 428.864 250.037 427.781C251.965 426.196 254.69 425.612 256.771 424.338C256.992 424.196 257.249 424.12 257.512 424.119C257.774 424.119 258.032 424.193 258.254 424.334C258.475 424.475 258.652 424.677 258.763 424.915C258.874 425.153 258.915 425.418 258.881 425.679L258.872 425.735C258.562 425.861 258.26 426.007 257.968 426.171C257.801 426.265 257.637 426.365 257.477 426.471C257.276 426.606 257.12 426.798 257.03 427.022C256.94 427.247 256.92 427.493 256.972 427.73C257.024 427.966 257.147 428.181 257.323 428.346C257.5 428.512 257.722 428.62 257.961 428.657L257.986 428.661L258.036 428.668C257.506 429.934 256.762 431.099 255.837 432.113C254.935 436.989 251.058 437.452 246.911 436.032H246.909C246.454 438.01 245.794 439.936 244.942 441.778H237.915C237.889 441.7 237.867 441.619 237.844 441.541C238.495 441.582 239.147 441.543 239.788 441.425C239.267 440.785 238.746 440.14 238.224 439.5C238.213 439.488 238.202 439.475 238.192 439.462C237.927 439.134 237.66 438.809 237.396 438.481C237.382 437.477 237.497 436.475 237.739 435.5Z" fill="#F2F2F2"/>
<path d="M62.6553 435.5C62.4741 435.508 62.2947 435.461 62.1414 435.364C61.9881 435.266 61.8683 435.125 61.7983 434.957C61.7283 434.79 61.7115 434.605 61.75 434.427C61.7886 434.25 61.8808 434.089 62.014 433.965L62.0746 433.724L62.0506 433.666C61.868 433.235 61.562 432.867 61.1711 432.609C60.7801 432.35 60.3217 432.214 59.8533 432.215C59.385 432.217 58.9276 432.357 58.5386 432.618C58.1496 432.879 57.8464 433.25 57.667 433.682C56.95 435.41 56.0372 437.141 55.8125 438.968C55.7135 439.775 55.7552 440.594 55.9359 441.387C54.2519 437.712 53.3775 433.717 53.3719 429.674C53.3716 428.659 53.4279 427.645 53.5407 426.637C53.6339 425.81 53.7632 424.99 53.9286 424.175C54.8311 419.754 56.7689 415.61 59.5829 412.083C60.9448 411.34 62.0462 410.196 62.7387 408.807C62.9896 408.308 63.1669 407.775 63.2651 407.224C62.9667 406.437 62.8098 405.602 62.8017 404.76C62.5876 404.435 62.2044 404.273 61.9705 403.956C60.8076 402.378 59.2053 402.654 58.3689 404.798C56.582 405.7 56.5648 407.196 57.6611 408.636C58.3587 409.551 58.4545 410.79 59.0666 411.771C59.0036 411.851 58.9381 411.93 58.8751 412.01C57.7241 413.491 56.7209 415.081 55.8799 416.758C56.0844 414.88 55.8403 412.979 55.1677 411.214C54.486 409.568 53.2082 408.182 52.083 406.76C51.7854 406.378 51.3813 406.092 50.9216 405.94C50.462 405.788 49.9676 405.775 49.5008 405.904C49.0341 406.033 48.6159 406.297 48.2993 406.664C47.9826 407.03 47.7817 407.482 47.7218 407.963L47.7151 408.026C47.8822 408.12 48.0458 408.22 48.2059 408.326C48.4069 408.461 48.5628 408.653 48.6529 408.877C48.743 409.102 48.7632 409.348 48.7109 409.585C48.6586 409.821 48.5362 410.036 48.3597 410.201C48.1832 410.367 47.9609 410.475 47.7219 410.512L47.6975 410.516C47.757 411.118 47.8622 411.716 48.0123 412.303C46.5688 417.888 49.6852 419.923 54.1351 420.014C54.2333 420.064 54.329 420.115 54.4272 420.163C53.5823 422.559 53.0523 425.054 52.8506 427.587C52.7364 429.081 52.7431 430.582 52.8707 432.075L52.8632 432.022C52.5408 430.362 51.6556 428.864 50.3571 427.781C48.4286 426.196 45.7039 425.612 43.6234 424.338C43.4023 424.196 43.1452 424.12 42.8824 424.119C42.6196 424.119 42.3622 424.193 42.1404 424.334C41.9186 424.475 41.7417 424.677 41.6306 424.915C41.5195 425.153 41.4788 425.418 41.5133 425.679L41.5218 425.735C41.8319 425.861 42.1339 426.007 42.426 426.171C42.5931 426.265 42.7567 426.365 42.9168 426.471C43.1179 426.606 43.2737 426.798 43.3638 427.022C43.4539 427.247 43.4741 427.493 43.4218 427.73C43.3695 427.966 43.2471 428.181 43.0706 428.346C42.8941 428.512 42.6718 428.62 42.4328 428.657L42.4083 428.661L42.358 428.668C42.8879 429.934 43.6317 431.099 44.5567 432.113C45.4593 436.989 49.336 437.452 53.4828 436.032H53.4853C53.9403 438.01 54.5995 439.936 55.4523 441.778H62.4793C62.5045 441.7 62.5272 441.619 62.5499 441.541C61.8995 441.582 61.2465 441.543 60.6055 441.425C61.1269 440.785 61.6482 440.14 62.1696 439.5C62.1812 439.488 62.1921 439.475 62.2023 439.462C62.4668 439.134 62.7337 438.809 62.9982 438.481C63.0123 437.477 62.8969 436.475 62.6553 435.5Z" fill="#F2F2F2"/>
<path d="M168.857 57.7009C170.279 54.8369 172.551 52.459 173.941 49.5794C175.331 46.6998 175.601 42.8457 173.286 40.6416C171.319 38.7701 168.24 38.7439 165.888 37.3883C159.898 33.9348 159.905 22.9654 153.056 22.0176C149.726 21.5567 146.713 24.0556 144.7 26.7499C142.687 29.4442 141.084 32.5881 138.292 34.4626C135.132 36.5846 131.047 36.6769 127.538 38.1508C120.81 40.9766 117.283 48.2431 114.334 54.921C112.434 59.2229 110.49 63.8629 111.372 68.4827C109.456 69.6757 110.31 72.8843 112.222 74.0828C114.135 75.2813 116.537 75.2547 118.733 75.7738C123.349 76.8648 127.129 80.5415 128.92 84.9356C130.317 88.3604 130.603 92.1207 130.872 95.8098C131.34 102.211 131.807 108.612 132.275 115.014C132.483 117.862 132.756 120.888 134.488 123.157C136.221 125.426 139.972 126.377 141.92 124.29C143.781 122.295 142.943 119.137 142.905 116.409C142.867 113.68 145.332 110.282 147.657 111.709L148.477 109.848C153.786 107.946 158.435 104.553 161.867 100.076C165.3 95.5989 167.37 90.2267 167.83 84.6028C168.424 75.5442 164.821 65.8313 168.857 57.7009Z" fill="#E6E6E6"/>
<path d="M174.283 115.143C174.795 114.659 175.159 114.039 175.331 113.355C175.503 112.671 175.476 111.953 175.254 111.284C175.031 110.615 174.621 110.023 174.074 109.58C173.526 109.136 172.863 108.858 172.163 108.779L172.172 109.086C171.172 109.67 170.033 109.97 168.876 109.953C167.723 109.935 166.575 110.117 165.484 110.49C164.942 110.688 164.472 111.045 164.136 111.515C163.801 111.984 163.615 112.545 163.604 113.122C163.667 113.564 163.836 113.985 164.097 114.348C164.357 114.711 164.702 115.006 165.101 115.208C165.901 115.602 166.761 115.864 167.646 115.981C169.926 116.41 172.594 116.735 174.283 115.143Z" fill="#E6E6E6"/>
<path d="M218.745 57.8523C219.7 57.2025 220.511 56.3624 221.126 55.3848C221.425 54.8901 221.567 54.3167 221.534 53.7399C221.5 53.1631 221.294 52.6097 220.941 52.1525C220.222 51.5284 219.297 51.194 218.345 51.2143C215.761 51.0212 213.164 51.3277 210.695 52.1169C213.23 54.3637 215.764 56.6105 218.299 58.8574L218.745 57.8523Z" fill="#E6E6E6"/>
<path d="M206.07 63.6962C207.094 64.8275 206.768 66.5825 206.478 68.0814C206.188 69.5803 206.151 71.4533 207.439 72.271C208.556 72.9797 210.123 72.4014 210.94 71.3607C211.67 70.2509 212.115 68.9776 212.235 67.6543C212.637 65.7309 212.818 63.7681 212.776 61.8037C212.727 59.8247 212.03 57.9165 210.79 56.3735C209.91 55.37 208.739 54.6672 207.44 54.3635C206.141 54.0598 204.779 54.1705 203.546 54.6801L204.724 54.622C203.868 55.7218 203.219 56.9682 202.808 58.3003C202.612 58.9695 202.598 59.6792 202.768 60.3556C202.938 61.032 203.286 61.6505 203.776 62.1468C204.475 62.7551 205.448 63.0095 206.07 63.6962Z" fill="#E6E6E6"/>
<path d="M263.848 44.7208L264.057 44.0757C263.181 44.5826 262.506 45.375 262.145 46.3203C261.783 47.2656 261.757 48.3065 262.071 49.2687C262.745 48.7372 263.264 48.0356 263.577 47.2362C263.889 46.4367 263.982 45.5685 263.848 44.7208Z" fill="#E6E6E6"/>
<path d="M252.466 53.9546C253.581 53.3229 254.532 52.4386 255.244 51.3726C255.956 50.3065 256.408 49.0885 256.565 47.816C256.685 47.0249 256.594 46.2158 256.299 45.4717C256.148 45.1022 255.908 44.7759 255.6 44.5217C255.293 44.2675 254.927 44.0933 254.536 44.0146L254.059 44.7657C253.375 44.1768 252.226 44.7824 251.939 45.6382C251.753 46.5267 251.83 47.45 252.161 48.2954C252.49 49.1459 252.475 50.0915 252.119 50.9311C251.734 51.4249 251.302 51.8793 250.828 52.2878C250.597 52.4986 250.445 52.7835 250.4 53.0936C250.355 53.4036 250.42 53.7197 250.582 53.9878C251.03 54.5007 251.87 54.2854 252.466 53.9546Z" fill="#E6E6E6"/>
<path d="M247.613 49.7596C248.021 49.0247 248.214 48.1893 248.168 47.3497L247.125 47.0225C246.459 47.2929 245.868 47.7207 245.402 48.2695C245.261 48.4113 245.153 48.5826 245.086 48.7711C245.018 48.9596 244.993 49.1607 245.013 49.36C245.032 49.5593 245.095 49.7518 245.198 49.9238C245.3 50.0958 245.439 50.243 245.605 50.3548C245.771 50.4667 245.96 50.5405 246.158 50.5709C246.355 50.6013 246.557 50.5876 246.749 50.5307C246.941 50.4738 247.118 50.3752 247.267 50.2419C247.417 50.1086 247.535 49.9439 247.613 49.7596Z" fill="#E6E6E6"/>
<path d="M298.586 44.4785C298.68 44.5575 298.774 44.6388 298.868 44.7185C298.951 44.7011 299.03 44.6697 299.115 44.6593L298.586 44.4785Z" fill="#E6E6E6"/>
<path d="M296.915 53.6365C297.872 52.8615 298.829 52.0865 299.787 51.3115C300.296 50.9514 300.729 50.4954 301.063 49.9691C301.292 49.4708 301.39 48.9228 301.35 48.3762C301.309 47.8295 301.131 47.302 300.832 46.8428C300.302 46.0289 299.638 45.3107 298.868 44.7188C298.023 44.919 297.28 45.4226 296.78 46.1341C296.281 46.8457 296.06 47.7158 296.158 48.5797C296.331 49.6785 297.021 50.8535 296.458 51.8128C296.239 52.1863 295.862 52.4405 295.609 52.7923C295.356 53.1439 295.274 53.704 295.622 53.9626C296.007 54.2498 296.541 53.939 296.915 53.6365Z" fill="#E6E6E6"/>
<path d="M299.009 58.3808C299.365 58.3999 299.721 58.3421 300.052 58.2115C300.384 58.0808 300.684 57.8803 300.931 57.6235C302.211 56.5741 303.331 55.3432 304.255 53.9697C302.101 54.6526 299.946 55.3353 297.792 56.0181L298.463 56.804C297.867 57.1936 298.309 58.2467 299.009 58.3808Z" fill="#E6E6E6"/>
<path d="M305.047 62.8177C305.178 63.1539 305.416 63.4378 305.724 63.6259C306.032 63.814 306.393 63.8961 306.752 63.8595C307.109 63.8118 307.452 63.6863 307.756 63.4918C308.059 63.2972 308.317 63.0384 308.51 62.7335C308.837 62.2504 309.03 61.6884 309.067 61.1058C309.105 60.5232 308.987 59.9411 308.724 59.4198C308.461 58.8984 308.064 58.4567 307.574 58.1403C307.084 57.8239 306.518 57.6443 305.935 57.6201L306.53 58.5294C306.681 60.0815 304.573 61.3322 305.047 62.8177Z" fill="#E6E6E6"/>
<path d="M346.887 79.8167C347.47 80.2517 348.178 80.4859 348.905 80.4842C349.632 80.4825 350.338 80.2449 350.919 79.8071C351.295 79.4854 351.601 79.0893 351.818 78.6438C352.034 78.1982 352.156 77.7128 352.176 77.2178C352.197 76.7229 352.114 76.2291 351.935 75.7674C351.756 75.3057 351.483 74.886 351.134 74.5347L350.034 75.1494C349.423 74.7569 348.685 74.6167 347.973 74.7581C347.262 74.8995 346.633 75.3116 346.219 75.9076C345.847 76.5323 345.711 77.269 345.833 77.9854C345.956 78.7018 346.329 79.3511 346.887 79.8167Z" fill="#E6E6E6"/>
<path d="M359.682 81.2659C360.218 81.1102 360.705 80.8195 361.096 80.4216C361.488 80.0237 361.77 79.5319 361.917 78.9933L359.778 78.7121C359.183 78.2624 358.491 77.9597 357.757 77.8285C357.389 77.7733 357.013 77.8464 356.692 78.0354C356.372 78.2244 356.126 78.518 355.995 78.8669C355.95 79.1637 355.981 79.4672 356.086 79.7485C356.191 80.0298 356.366 80.2795 356.595 80.4739C356.999 80.8592 357.495 81.1344 358.035 81.2731C358.576 81.4117 359.143 81.4093 359.682 81.2659Z" fill="#E6E6E6"/>
<path d="M350.849 85.5448C350.886 85.893 351.022 86.2232 351.24 86.497C351.459 86.7707 351.75 86.9767 352.081 87.0907C352.443 87.2623 352.848 87.3213 353.243 87.26C353.639 87.1987 354.007 87.02 354.299 86.747C354.429 86.6011 354.521 86.4265 354.569 86.2376C354.617 86.0488 354.62 85.8512 354.576 85.6612C354.533 85.4712 354.445 85.2943 354.319 85.1452C354.194 84.9962 354.035 84.8792 353.855 84.8041L352.251 84.5122C351.631 84.191 350.839 84.8464 350.849 85.5448Z" fill="#E6E6E6"/>
<path d="M257.77 96.8312L256.529 95.6968C256.859 96.1574 257.282 96.5438 257.77 96.8312Z" fill="#E6E6E6"/>
<path d="M248.287 90.1515C249.051 93.7032 252.875 96.5968 256.346 95.5295L256.529 95.6968C255.424 94.1835 255.237 91.9444 255.495 89.9971C255.974 86.6603 257.285 83.498 259.307 80.8018C261.329 78.1057 263.998 75.9626 267.066 74.5704C267.906 74.3078 268.658 73.8179 269.237 73.1547C269.732 72.4309 269.548 71.1898 268.695 70.9853C268.232 70.9323 267.765 71.0406 267.372 71.2918L260.922 74.4683C257.664 76.0726 254.341 77.7229 251.782 80.3006C249.224 82.8783 247.523 86.5996 248.287 90.1515Z" fill="#E6E6E6"/>
<path d="M144.167 212.284C138.157 207.979 131.574 204.538 124.611 202.059C120.331 200.536 115.732 199.375 111.272 200.239C108.827 200.745 106.535 201.822 104.583 203.381C102.632 204.94 101.075 206.937 100.04 209.211C99.0425 211.502 98.5735 213.987 98.6676 216.484C98.7616 218.98 99.4164 221.424 100.583 223.633C102.64 227.488 106.201 230.559 107.391 234.764C108.194 237.599 107.814 240.618 107.427 243.539C106.638 249.508 105.848 255.477 105.059 261.447C104.34 266.881 103.64 272.537 105.359 277.742C107.079 282.947 111.986 287.536 117.437 286.983L118.518 286.901C114.912 284.448 113.901 279.369 114.975 275.14C116.048 270.911 118.773 267.325 121.434 263.868C129.329 253.61 137.225 243.352 145.12 233.094C148.314 228.944 151.693 223.814 149.99 218.86C149.021 216.044 146.586 214.018 144.167 212.284Z" fill="#E6E6E6"/>
<path d="M90.36 186.352C89.5604 186.081 88.7158 186.684 88.2457 187.385C87.8657 188.139 87.4193 188.857 86.9117 189.531C85.6817 190.8 83.4404 190.548 82.1139 189.381C80.7874 188.214 80.2126 186.409 79.9552 184.66C79.6463 182.562 79.7796 180.222 81.1635 178.615C82.588 176.962 84.9295 176.518 87.0841 176.175C89.3097 175.82 91.8031 175.524 93.6264 176.85C94.7749 177.684 95.4443 179.031 96.5082 179.972C97.572 180.912 99.4645 181.268 100.265 180.095C100.475 179.68 100.581 179.22 100.574 178.754C100.567 178.289 100.448 177.832 100.227 177.422C99.7766 176.606 99.5059 175.704 99.4325 174.775C99.4861 173.485 100.521 172.461 101.579 171.724C102.638 170.987 103.834 170.351 104.528 169.264C105.382 167.927 105.292 166.204 105.822 164.708C107.104 161.087 111.682 159.476 113.016 155.874C113.337 155.116 113.373 154.268 113.117 153.485C112.559 152.051 111.05 152.332 110.958 150.578C110.869 148.901 112.268 147.256 113.689 146.555C115.648 145.589 117.932 145.667 120.116 145.609C122.299 145.55 124.651 145.259 126.254 143.774C126.772 143.239 127.172 142.601 127.427 141.901C127.682 141.2 127.787 140.454 127.734 139.711C127.68 138.968 127.471 138.244 127.119 137.587C126.767 136.93 126.281 136.355 125.691 135.899C124.497 135.074 122.988 134.787 121.826 133.918C120.379 132.834 119.694 131.029 118.567 129.616C117.629 128.539 116.557 127.589 115.375 126.788C114.408 126.07 113.441 125.352 112.474 124.634C110.726 123.336 108.907 122.005 106.779 121.542C104.652 121.08 102.118 121.734 101.053 123.634C100.633 124.481 100.403 125.409 100.381 126.354C100.284 128.579 100.376 130.808 100.658 133.017C100.834 134.796 101.009 136.574 101.185 138.352C101.342 139.946 101.173 142.048 99.6266 142.462C96.1956 143.38 97.3533 138.304 96.5924 136.748C95.4276 134.368 90.0761 133.225 87.7883 132.233C86.3595 131.614 84.8516 130.93 83.9889 129.633C82.9151 128.018 83.1355 125.821 83.9776 124.074C84.8196 122.328 86.1915 120.906 87.4379 119.421C88.7084 117.907 89.8653 116.302 91.0208 114.699C92.361 112.839 93.7012 110.98 95.0415 109.12C96.7603 106.735 98.5673 103.824 97.5909 101.051C97.3793 100.68 97.063 100.38 96.6816 100.188C96.3002 99.9958 95.8707 99.9206 95.4469 99.9718C95.023 100.023 94.6236 100.198 94.2988 100.475C93.9739 100.752 93.7381 101.119 93.6207 101.53C93.1927 103.027 94.3343 104.939 93.2422 106.049C92.8681 106.35 92.4 106.51 91.9197 106.501C91.4395 106.492 90.9776 106.315 90.6151 105.999C89.9078 105.346 89.369 104.531 89.0448 103.624C87.7217 100.681 86.4327 97.7212 85.0745 94.7952C84.6452 93.8703 84.1971 92.2864 82.8959 92.4423C81.7663 92.5777 81.1563 94.2247 81.1956 95.181C81.2527 96.5722 82.0212 97.8154 82.6086 99.0777C83.1959 100.34 83.6067 101.856 82.9618 103.09C82.1452 104.652 80.0771 105.003 78.3159 104.951C74.9961 104.851 71.7433 103.992 68.8061 102.441C68.7294 104.073 68.6526 105.706 68.5759 107.338C66.2381 106.359 63.9004 105.38 61.5627 104.401C61.1087 104.211 60.6546 104.021 60.2006 103.831C58.2286 103.005 56.2542 102.178 54.2241 101.508C53.0716 101.127 51.9031 100.797 50.735 100.468C50.025 100.268 49.3149 100.067 48.6049 99.8672C47.2037 99.3704 45.7175 99.1583 44.2334 99.2433C42.6742 99.4392 41.2835 100.277 39.8414 100.904C36.6242 102.301 32.4629 100.895 29.0152 100.87C27.6476 98.8726 25.8013 97.2498 23.6451 96.1505C21.4889 95.0511 19.0916 94.5103 16.6725 94.5773C14.2535 94.6444 11.8898 95.3172 9.79775 96.5344C7.70568 97.7515 5.95199 99.474 4.69707 101.544C4.0909 102.593 3.55109 103.679 3.0808 104.796C2.61301 105.845 2.14521 106.894 1.6774 107.943C0.99115 109.482 0.289762 111.103 0.424648 112.783C0.559533 114.462 1.84638 116.178 3.53034 116.163C-0.440576 117.962 -1.26687 124.256 2.10509 127.02C3.0388 127.785 4.18377 128.286 5.02401 129.153C5.65907 129.808 6.08393 130.638 6.24407 131.537C6.40421 132.436 6.29232 133.362 5.92277 134.196C5.55321 135.031 4.94284 135.736 4.17 136.221C3.39717 136.706 2.49712 136.949 1.58535 136.918C3.93786 137.828 6.52915 137.913 8.93593 137.158C11.3427 136.404 13.4227 134.855 14.8362 132.765C16.2778 130.507 16.9044 127.685 18.8655 125.86C21.4627 123.443 25.7528 123.631 28.7483 125.531C31.7438 127.432 33.6388 130.668 34.9423 133.968C36.6505 138.294 37.7437 143.236 41.3829 146.13C43.1425 147.529 45.3709 148.316 46.9262 149.939C49.1411 152.251 49.5243 155.74 49.4743 158.942C49.4244 162.144 49.0797 165.466 50.2455 168.449C51.4112 171.431 54.7533 173.884 57.7502 172.76C56.8916 175.309 56.918 178.073 57.8249 180.605C58.7318 183.137 60.4662 185.288 62.7473 186.711C62.2013 183.322 61.6553 179.934 61.1093 176.545C63.8306 177.312 65.5944 179.953 66.613 182.592C67.6316 185.23 68.1698 188.084 69.6463 190.496C71.9713 194.295 76.1816 195.931 80.4646 195.917C85.0915 195.901 86.8481 193.694 89.8972 190.443C90.5098 189.889 90.9747 189.19 91.2501 188.411C91.3745 188.018 91.353 187.593 91.1895 187.215C91.026 186.837 90.7314 186.53 90.36 186.352Z" fill="#E6E6E6"/>
<path d="M103.461 186.184C100.875 185.777 98.2891 185.37 95.7029 184.963C97.0586 185.779 98.4144 186.594 99.7701 187.41C100.901 188.163 102.13 188.755 103.423 189.171C104.071 189.375 104.755 189.443 105.431 189.372C106.107 189.301 106.761 189.092 107.352 188.757L107.021 188.124C106.5 186.804 104.862 186.404 103.461 186.184Z" fill="#E6E6E6"/>
<path d="M101.704 200.567L101.722 200.522C101.566 200.263 101.335 200.056 101.06 199.928C100.786 199.801 100.479 199.759 100.18 199.807C99.5843 199.914 98.9753 199.923 98.3764 199.836C97.996 199.687 97.6567 199.45 97.3869 199.143C97.1171 198.836 96.9247 198.469 96.8256 198.073C96.5686 197.299 96.4925 196.471 96.1998 195.71C95.9883 195.108 95.6149 194.576 95.1208 194.173C94.6266 193.769 94.0308 193.51 93.399 193.424C92.765 193.373 92.1364 193.574 91.6492 193.983C91.1621 194.392 90.8554 194.977 90.7955 195.61C90.8453 196.262 91.0524 196.893 91.3992 197.448C91.6782 197.985 91.9571 198.521 92.2361 199.058C92.4712 199.54 92.7416 200.003 93.0452 200.444C93.539 201.124 94.1846 201.681 94.9308 202.068C95.677 202.455 96.5032 202.663 97.3438 202.675C98.1844 202.687 99.0161 202.503 99.7731 202.137C100.53 201.771 101.191 201.233 101.704 200.567Z" fill="#E6E6E6"/>
<path d="M86.6004 62.8619C88.5697 64.0235 91.0357 64.8241 91.9714 66.9111L92.5111 67.0856C91.9224 67.8176 91.3336 68.5497 90.7448 69.2817C90.0172 70.1864 89.2521 71.1944 89.2691 72.3555C89.2925 73.9546 90.8298 75.161 92.3831 75.538C94.0407 75.8792 95.7659 75.5921 97.2238 74.7323C98.6817 73.8725 99.7683 72.5013 100.273 70.885C100.457 70.2109 100.534 69.5117 100.696 68.8318C101.168 67.2193 101.881 65.6872 102.81 64.2875C108.039 55.485 113.268 46.6824 118.497 37.8798C119.148 36.7836 119.82 35.4722 119.33 34.2948C119.069 33.7968 118.664 33.3885 118.169 33.1225C117.674 32.8566 117.11 32.7451 116.551 32.8025C115.435 32.9381 114.358 33.3004 113.387 33.8671C112.956 33.1088 112.347 32.4666 111.612 31.9957C110.878 31.5248 110.041 31.2391 109.172 31.1634C107.435 31.0293 105.688 31.1816 104 31.6142C100.187 32.1899 96.5096 33.4538 93.1478 35.3443C91.3088 36.2746 89.2848 37.4235 88.7513 39.4152C88.0949 41.8651 90.2101 44.3619 92.6454 45.066C95.0807 45.7701 97.6801 45.1788 100.145 44.5862C100.423 45.7817 100.307 47.0354 99.8139 48.1593C99.3205 49.2833 98.4763 50.2169 97.4079 50.8204C96.3394 51.4239 95.1043 51.6646 93.8877 51.5065C92.671 51.3485 91.5383 50.8001 90.6593 49.9437C88.8925 48.2223 88.0272 45.2342 85.6015 44.7899C83.1835 44.3471 81.2616 46.9276 80.7279 49.3285C80.2059 51.9145 80.489 54.5985 81.5391 57.0184C82.5892 59.4383 84.3557 61.4779 86.6004 62.8619Z" fill="#E6E6E6"/>
<path d="M116.929 105.218C115.764 101.934 114.234 98.7917 112.366 95.8505C110.951 93.5249 109.204 91.4184 107.18 89.5975C105.331 87.9997 103.206 86.7538 100.908 85.9213C98.6785 85.1144 96.196 84.7159 93.9417 85.4515C91.6875 86.1872 89.7697 88.2844 89.8154 90.6565C89.8659 93.2794 92.1594 95.3306 94.5497 96.4084C96.94 97.4861 99.599 97.9551 101.854 99.293C103.387 100.223 104.669 101.517 105.586 103.059C106.503 104.601 107.027 106.345 107.112 108.137L107.68 109.077C106.394 109.503 105.194 110.157 104.137 111.007C103.614 111.439 103.214 112.001 102.978 112.638C102.742 113.274 102.677 113.961 102.792 114.63C103.186 116.218 104.806 117.13 106.272 117.856C108.98 119.198 111.688 120.54 114.396 121.882C113.017 117.768 117.532 113.94 117.781 109.608C117.791 108.103 117.501 106.61 116.929 105.218Z" fill="#E6E6E6"/>
<path d="M48.8367 94.1111C50.4794 95.3875 53.0051 94.7904 54.51 93.3539C56.0149 91.9173 56.7479 89.8731 57.4314 87.9075C57.1818 89.853 57.2054 91.8239 57.5017 93.7628C57.656 94.7324 58.0097 95.6594 58.5406 96.485C59.0715 97.3107 59.7679 98.0171 60.5857 98.5595C61.3283 98.9671 62.1288 99.2587 62.9594 99.4242C66.8208 100.304 70.8563 100.015 74.5535 98.5954L74.5867 97.3304C72.7293 97.5424 71.3238 95.5041 71.2012 93.6376C71.0786 91.7712 71.7556 89.9407 71.8151 88.0712C71.8746 86.2016 70.9741 84.0173 69.1345 83.6847C69.4564 84.3317 69.5739 85.0615 69.4711 85.7769C69.3683 86.4924 69.0503 87.1595 68.5592 87.6897C68.0681 88.2198 67.4274 88.5877 66.7222 88.7444C66.017 88.9011 65.2808 88.8393 64.6116 88.5671C62.4823 87.7009 61.7088 85.1052 60.0632 83.4993C59.0465 82.5944 57.7851 82.0104 56.4375 81.8207C55.09 81.6311 53.7165 81.8443 52.4898 82.4335C51.2786 83.0519 50.216 83.926 49.3755 84.9955C48.5349 86.065 47.9365 87.3044 47.6215 88.6279C47.1218 90.5484 47.2701 92.8939 48.8367 94.1111Z" fill="#E6E6E6"/>
<path d="M99.5354 80.7898L99.6116 80.666C99.153 79.341 97.7315 78.564 96.344 78.3669C94.9453 78.2745 93.5409 78.3209 92.1513 78.5055C90.749 78.687 89.3273 78.3737 88.1309 77.6195C87.1758 76.9051 86.6317 75.7811 85.8682 74.8645C85.1046 73.948 83.8689 73.1943 82.7598 73.6325C81.559 74.107 81.2386 75.7911 81.8213 76.9438C82.5078 78.0502 83.5434 78.8959 84.7642 79.3472C89.3873 81.4705 94.5892 81.9786 99.5354 80.7898Z" fill="#E6E6E6"/>
<path d="M83.7547 84.7615C83.3707 85.043 83.1103 85.4622 83.0281 85.9314C82.9459 86.4006 83.0482 86.8834 83.3136 87.2788C83.579 87.6743 83.987 87.9517 84.4522 88.053C84.9173 88.1544 85.4037 88.0718 85.8094 87.8226L86.2145 88.2227C86.7533 87.2573 86.9755 85.964 86.2865 85.0995C85.9801 84.7411 85.5524 84.5084 85.0852 84.446C84.618 84.3837 84.1443 84.496 83.7547 84.7615Z" fill="#E6E6E6"/>
<path d="M79.014 88.2248C79.0199 87.8799 78.9213 87.5412 78.7312 87.2534C78.5411 86.9657 78.2684 86.7422 77.9489 86.6124C77.7315 86.5751 77.5087 86.5822 77.2941 86.6333C77.0794 86.6844 76.8773 86.7784 76.7 86.9098C76.5226 87.0411 76.3737 87.207 76.2621 87.3974C76.1505 87.5879 76.0786 87.799 76.0508 88.018C76.0173 88.4641 76.0759 88.9123 76.2229 89.3348C76.3699 89.7573 76.6021 90.1451 76.9052 90.4741C77.0815 90.739 77.3119 90.9636 77.5813 91.1329C77.8507 91.3023 78.1528 91.4126 78.4679 91.4565C79.1028 91.4773 79.7501 90.813 79.4927 90.232L78.5233 90.213C78.822 89.5912 78.989 88.9143 79.014 88.2248Z" fill="#E6E6E6"/>
<path d="M60.056 78.2911C60.4121 78.5798 60.7681 78.8685 61.1242 79.1573C61.7408 79.6907 62.407 80.164 63.1136 80.5707C64.3496 81.2558 65.803 81.4338 67.1676 81.0673C67.8413 80.875 68.4558 80.5162 68.9544 80.0239C69.4531 79.5315 69.8198 78.9215 70.0209 78.25C70.4466 76.645 69.7522 74.9785 69.0726 73.4635C68.9175 73.03 68.6616 72.6396 68.326 72.3245C68.1541 72.1722 67.9348 72.084 67.7053 72.075C67.4758 72.066 67.2502 72.1366 67.0669 72.2751C66.9339 72.4407 66.8455 72.6377 66.81 72.8472C66.7745 73.0567 66.7932 73.2718 66.8642 73.4721C67.0103 73.8712 67.077 74.295 67.0607 74.7197C66.993 75.1386 66.5536 75.5346 66.1665 75.3613L66.1048 76.7873C64.2563 75.851 63.2786 73.3605 61.2214 73.1149C60.7596 73.0598 60.2916 73.1326 59.8684 73.3254C59.4452 73.5182 59.0831 73.8236 58.8215 74.2083C58.5599 74.593 58.4089 75.0421 58.385 75.5068C58.361 75.9714 58.4651 76.4338 58.6858 76.8433C59.043 77.4113 59.5086 77.9033 60.056 78.2911Z" fill="#E6E6E6"/>
<path d="M55.6532 72.1352C56.0808 71.8418 56.4192 71.436 56.631 70.9624C56.8427 70.4889 56.9197 69.9661 56.8534 69.4516C56.8022 69.2024 56.6968 68.9675 56.5446 68.7637C56.3924 68.5599 56.1972 68.3921 55.9729 68.2723C55.7486 68.1525 55.5006 68.0837 55.2467 68.0706C54.9928 68.0576 54.7391 68.1007 54.5037 68.1969C53.9756 68.592 53.6045 69.1617 53.4566 69.8047C52.9694 71.1798 52.4822 72.5549 51.995 73.93L52.8138 73.3338C53.8269 73.1155 54.79 72.709 55.6532 72.1352Z" fill="#E6E6E6"/>
<path d="M65.142 63.696C65.2883 63.5114 65.3924 63.297 65.4469 63.0678C65.5015 62.8386 65.5052 62.6002 65.4577 62.3695C65.4103 62.1387 65.3128 61.9212 65.1723 61.7322C65.0318 61.5432 64.8515 61.3873 64.6443 61.2755L63.6205 61.1797C63.3877 61.2387 63.1719 61.3514 62.9905 61.5089C62.8092 61.6664 62.6672 61.8642 62.5761 62.0865C62.4849 62.3088 62.4471 62.5494 62.4657 62.7889C62.4842 63.0285 62.5587 63.2604 62.683 63.466C62.8073 63.6715 62.978 63.8451 63.1815 63.9727C63.3849 64.1003 63.6155 64.1785 63.8546 64.2008C64.0937 64.2232 64.3347 64.1892 64.5583 64.1015C64.7818 64.0138 64.9818 63.8749 65.142 63.696Z" fill="#E6E6E6"/>
<path d="M74.5616 65.2772C75.517 65.7346 76.7265 66.1705 77.5577 65.5137C77.8038 65.2907 77.987 65.0068 78.0886 64.6905C78.1901 64.3741 78.2066 64.0366 78.1363 63.7119C77.9871 63.0641 77.6988 62.4565 77.2915 61.9314C76.0204 60.1054 74.4054 58.5451 72.5371 57.3379L72.0752 57.9384C71.43 59.6148 70.807 61.5719 71.7069 63.1264C72.3137 64.1742 73.4697 64.7545 74.5616 65.2772Z" fill="#E6E6E6"/>
<path d="M81.6792 66.7694L83.4658 67.578C83.2906 67.2725 83.0238 67.03 82.7031 66.8848C82.3824 66.7397 82.0241 66.6993 81.6792 66.7694Z" fill="#E6E6E6"/>
<path d="M76.8647 72.394L76.0204 72.6723C75.3026 73.8527 75.614 75.362 75.9479 76.7028C76.159 77.5504 76.6143 78.5933 77.4864 78.5548C78.3351 78.5173 78.7106 77.4877 78.8735 76.6535C79.1277 75.7472 79.1553 74.7924 78.9537 73.873C78.8387 73.4178 78.5651 73.0187 78.182 72.7476C77.799 72.4764 77.3319 72.3511 76.8647 72.394Z" fill="#E6E6E6"/>
<path d="M63.4016 68.4214L64.0263 68.6731C64.1728 68.6522 64.3082 68.5835 64.4117 68.4778C64.5152 68.372 64.581 68.235 64.5987 68.0881C64.6165 67.9411 64.5854 67.7924 64.5101 67.6649C64.4349 67.5375 64.3197 67.4385 64.1824 67.3832C64.0452 67.3279 63.8936 67.3194 63.7511 67.3591C63.6085 67.3988 63.4831 67.4844 63.3941 67.6027C63.3052 67.721 63.2577 67.8653 63.2591 68.0133C63.2604 68.1614 63.3105 68.3048 63.4016 68.4214Z" fill="#E6E6E6"/>
<path d="M94.8939 116.215C94.5913 116.221 94.2947 116.3 94.0288 116.445C93.763 116.59 93.5355 116.796 93.3655 117.047C93.1955 117.297 93.0878 117.585 93.0515 117.885C93.0151 118.186 93.0511 118.491 93.1565 118.775C93.77 120.097 95.8826 120.102 96.8215 118.988C97.062 118.672 97.2343 118.309 97.3276 117.922C97.4208 117.536 97.433 117.134 97.3633 116.743C97.2936 116.351 97.1436 115.979 96.9227 115.648C96.7019 115.318 96.4149 115.037 96.08 114.823L94.8939 116.215Z" fill="#E6E6E6"/>
<path d="M125.322 147.523C125.076 147.589 124.846 147.703 124.646 147.859C124.445 148.015 124.277 148.21 124.153 148.431C124.029 148.653 123.95 148.898 123.922 149.15C123.894 149.403 123.917 149.659 123.989 149.903L125.743 150.025C126.337 149.726 126.931 149.428 127.525 149.13C127.489 148.878 127.403 148.636 127.272 148.418C127.141 148.2 126.968 148.011 126.762 147.861C126.557 147.711 126.324 147.604 126.076 147.546C125.829 147.488 125.572 147.48 125.322 147.523Z" fill="#E6E6E6"/>
<path d="M118.193 149.694C117.691 150.051 117.288 150.53 117.022 151.085C116.757 151.64 116.636 152.254 116.673 152.869C116.73 153.482 116.981 154.061 117.389 154.523C117.797 154.984 118.341 155.303 118.942 155.434C119.549 155.53 120.17 155.391 120.678 155.046C121.187 154.701 121.546 154.175 121.682 153.576C121.978 151.76 120.029 150.431 119.328 148.73L118.193 149.694Z" fill="#E6E6E6"/>
<path d="M186.313 137.706C186.498 139.069 185.271 140.262 185.225 141.637C185.171 143.268 186.945 144.536 188.568 144.376C189.373 144.237 190.136 143.912 190.794 143.428C191.453 142.943 191.991 142.313 192.365 141.586L192.4 141.433C191.61 140.539 190.819 139.645 190.029 138.751C189.058 137.653 188.029 136.403 188.067 134.938C188.086 134.216 188.37 133.516 188.354 132.793C188.316 132.273 188.2 131.762 188.01 131.277C187.796 130.638 187.505 129.918 186.867 129.702C186.068 129.432 185.262 130.141 184.88 130.893C184.537 131.587 184.371 132.355 184.395 133.129C184.419 133.903 184.634 134.659 185.02 135.33C185.481 136.114 186.19 136.804 186.313 137.706Z" fill="#E6E6E6"/>
<path d="M178.858 142.501C179.031 142.594 179.222 142.649 179.418 142.661C179.614 142.674 179.811 142.644 179.994 142.573C180.698 142.453 181.375 142.207 181.993 141.847C182.299 141.662 182.551 141.4 182.723 141.086C182.894 140.772 182.98 140.419 182.97 140.061C182.863 139.611 182.626 139.203 182.287 138.889C181.949 138.574 181.525 138.367 181.068 138.294C180.752 138.183 180.413 138.151 180.081 138.202C179.749 138.252 179.435 138.384 179.166 138.585C178.577 139.138 178.647 140.076 178.763 140.876L178.639 141.084C178.528 141.578 178.457 142.192 178.858 142.501Z" fill="#E6E6E6"/>
<path d="M303.279 200.737C303.108 200.311 302.937 199.886 302.766 199.46C302.532 200.038 302.619 200.629 303.279 200.737Z" fill="#E6E6E6"/>
<path d="M405.913 111.255C403.719 108.873 402.375 107.5 400.989 104.548C400.236 102.919 399.09 101.503 397.656 100.426C396.222 99.348 394.544 98.6424 392.771 98.372C388.219 97.6216 383.567 98.8098 378.961 98.5717C371.581 98.1903 364.927 94.2301 357.861 92.07C353.904 90.9607 349.874 90.1292 345.802 89.5815C343.455 89.2102 341.109 88.8389 338.762 88.4676C331.07 87.2504 323.329 86.0297 315.543 86.1913C313.298 86.2379 310.17 85.5627 310.35 83.323C310.574 80.5413 315.575 80.9065 316.538 78.287C317.133 76.6667 315.708 74.9654 314.146 74.2327C312.584 73.5 310.78 73.2797 309.363 72.2959C307.945 71.3123 307.168 69.0319 308.471 67.9004C304.859 69.753 301.247 71.6057 297.635 73.4584C294.633 74.9987 291.278 77.0027 290.747 80.3372C288.938 80.8156 287.354 81.9163 286.275 83.4462C284.243 83.4567 282.646 85.4084 282.311 87.4135C281.976 89.4185 282.585 91.4478 283.188 93.3893C282.451 91.9769 281.668 90.5106 280.369 89.589C279.07 88.6674 277.093 88.4918 275.985 89.6367C274.849 90.8116 275.115 92.7827 275.918 94.2061C276.722 95.6296 277.957 96.7784 278.716 98.2266C281.085 102.75 276.792 109.117 271.714 108.613C272.054 103.943 272.395 99.2726 272.735 94.6022C272.951 93.1656 272.831 91.6985 272.383 90.3166C271.829 88.9796 270.41 87.8816 268.999 88.1973C266.46 88.765 266.677 92.4852 267.733 94.8635C268.789 97.2417 269.842 100.549 267.686 102.006C266.294 102.946 264.407 102.365 262.905 101.614C261.402 100.864 259.794 99.9385 258.152 100.289C256.509 100.64 255.476 103.152 256.928 103.998C254.521 103.58 252.114 103.161 249.707 102.743C249.588 103.452 249.322 104.128 248.925 104.727C248.528 105.326 248.011 105.836 247.405 106.223C246.799 106.609 246.119 106.864 245.409 106.972C244.699 107.079 243.974 107.036 243.281 106.845C243.045 105.866 242.808 104.886 242.572 103.906C242.22 103.808 241.868 103.71 241.516 103.612C242.621 103.92 240.891 108.585 239.341 112.148C237.256 111.904 234.21 111.857 233.862 111.259C232.198 108.397 232.395 101.579 229.503 99.9691C228.053 99.1616 226.566 98.4257 225.042 97.7616C224.241 97.3803 223.395 97.1024 222.524 96.9346C220.748 96.6545 218.958 97.2057 217.244 97.7503C215.219 98.3937 213.147 99.0614 211.47 100.367C210.039 101.61 208.811 103.07 207.833 104.695C204.523 109.597 201.212 114.5 197.902 119.402C196.915 120.711 196.139 122.166 195.602 123.715C195.348 124.485 195.264 125.301 195.354 126.107C195.445 126.912 195.708 127.689 196.126 128.384C196.566 129.065 197.222 129.577 197.99 129.84C198.757 130.102 199.589 130.098 200.354 129.829C201.314 129.414 202.275 128.472 203.225 128.907C203.946 129.236 204.126 130.183 204.05 130.972C203.867 131.744 203.853 132.547 204.008 133.325C204.441 134.553 206.106 134.98 207.294 134.449C208.449 133.818 209.314 132.764 209.708 131.508C210.852 128.571 210.736 125.321 211.021 122.182C211.305 119.042 212.163 115.684 214.637 113.732C215.377 113.148 216.465 112.727 217.228 113.282C217.513 113.542 217.71 113.884 217.792 114.261C217.874 114.638 217.836 115.032 217.683 115.386C217.364 116.087 216.949 116.741 216.449 117.326C215.603 118.516 215.012 119.867 214.711 121.296C214.41 122.724 214.406 124.199 214.7 125.629L215.205 125.942C217.134 125.441 219.716 126.338 222.276 127.197C220.418 127.75 218.781 128.877 217.6 130.416C214.64 134.571 212.497 138.504 206.642 138.454C205.253 138.443 203.875 138.168 202.486 138.165C201.084 138.078 199.703 138.538 198.633 139.449C197.579 140.481 197.254 142.052 196.353 143.219C195.168 144.754 193.188 145.378 191.38 146.075C190.058 146.584 188.665 147.271 188.058 148.551C187.676 149.601 187.588 150.736 187.803 151.832C188.007 153.771 188.367 155.976 190.011 157.022C190.626 157.343 191.298 157.538 191.989 157.597C192.68 157.655 193.375 157.576 194.035 157.363C195.745 156.947 197.417 156.163 199.173 156.28C201.93 156.464 204.2 159.112 204.228 161.876C204.242 163.276 203.834 164.881 204.761 165.929C205.632 166.913 207.36 166.738 208.262 165.782C208.682 165.273 208.97 164.67 209.103 164.024C209.235 163.378 209.208 162.709 209.022 162.076C208.639 160.816 208.05 159.628 207.278 158.56C208.196 158.322 209.167 158.41 210.028 158.808C210.888 159.206 211.584 159.89 211.998 160.743C212.61 162.104 212.412 163.675 212.607 165.155C212.803 166.635 213.703 168.28 215.193 168.365C215.68 168.379 216.156 168.221 216.539 167.92C216.923 167.619 217.189 167.194 217.291 166.717C217.307 165.966 217.266 165.215 217.169 164.47C217.22 163.737 217.549 163.051 218.089 162.552C218.629 162.054 219.34 161.782 220.074 161.791C219.621 162.629 219.474 163.598 219.657 164.533C219.84 165.468 220.343 166.31 221.079 166.914C222.213 167.792 223.711 167.988 225.123 168.233C226.535 168.478 228.041 168.866 228.953 169.973C230.471 171.817 228.613 172.647 228.324 174.208C227.969 176.125 229.569 178.956 230.184 180.79C233.008 184.743 235.833 188.697 238.657 192.65C239.288 193.611 240.031 194.493 240.872 195.277C243.66 197.673 248.257 197.437 250.93 194.914C252.227 193.602 253.068 191.908 253.332 190.082C253.595 188.256 253.267 186.393 252.395 184.767C250.742 181.758 247.468 179.894 245.851 176.865C248.542 179.094 251.846 180.453 255.326 180.764C261.482 182.015 267.331 184.47 272.538 187.986C272.783 193.43 274.87 198.628 278.457 202.728C279.102 198.082 281.267 193.781 284.613 190.497C286.789 188.373 289.762 186.661 292.747 187.232C295.733 187.803 297.997 191.612 296.192 194.059C297.705 194.171 299.218 194.284 300.731 194.397C301.409 196.084 302.088 197.772 302.766 199.46C302.887 199.106 303.118 198.799 303.426 198.585C303.734 198.372 304.102 198.262 304.476 198.273C305.892 198.487 306.886 199.806 308.233 200.292C310.773 201.21 313.488 198.668 313.816 195.986C314.144 193.305 312.869 190.715 311.631 188.315C314.367 188.822 317.192 188.519 319.759 187.445C322.326 186.37 324.525 184.57 326.085 182.264C327.646 179.959 328.5 177.248 328.545 174.464C328.589 171.68 327.821 168.943 326.335 166.589C329.28 163.495 332.745 160.942 336.572 159.048C340.114 157.297 343.989 156.095 347.084 153.639C350.18 151.183 352.351 146.918 350.862 143.257C349.81 140.67 347.172 138.914 346.382 136.236C345.239 132.359 348.711 128.348 352.634 127.379C356.556 126.411 360.652 127.601 364.516 128.783C363.922 124.805 368.531 121.075 372.295 122.488C373.871 121.849 375.447 121.211 377.024 120.572C375.196 124.603 371.237 127.168 368.325 130.5C365.414 133.833 363.68 139.259 366.721 142.474C371.081 138.52 375.44 134.567 379.799 130.613C384.359 126.478 388.919 122.342 393.479 118.207C393.261 117.567 393.044 116.927 392.826 116.287C397.14 114.647 401.786 113.291 405.913 111.255Z" fill="#E6E6E6"/>
<path d="M179.484 164.463C179.308 164.717 179.214 165.019 179.215 165.328C179.217 165.637 179.314 165.938 179.492 166.19C179.727 166.389 180.023 166.5 180.33 166.504C180.637 166.508 180.936 166.405 181.176 166.212C181.644 165.813 182.009 165.306 182.242 164.736C182.468 165.174 182.824 165.532 183.261 165.761C183.698 165.99 184.194 166.079 184.684 166.015C185.66 165.868 186.586 165.482 187.378 164.891C188.006 164.523 188.56 164.041 189.014 163.471C189.238 163.184 189.392 162.848 189.463 162.491C189.534 162.133 189.521 161.764 189.425 161.413C189.19 160.874 188.824 160.402 188.362 160.04C187.208 158.974 186.055 157.907 184.901 156.841L184.51 156.724C184.307 156.507 184.062 156.334 183.79 156.215C183.518 156.095 183.224 156.032 182.927 156.029C182.63 156.026 182.336 156.083 182.061 156.196C181.787 156.31 181.538 156.478 181.33 156.69C180.613 157.492 180.61 158.691 180.72 159.761C180.829 160.832 181 161.972 180.523 162.936C180.25 163.489 179.788 163.927 179.484 164.463Z" fill="#E6E6E6"/>
<path d="M246.41 200.882C241.927 199.883 237.824 197.622 234.585 194.364C231.346 191.107 229.107 186.989 228.132 182.499C227.707 180.38 227.514 178.065 226.105 176.426C224.741 174.84 222.513 174.268 220.422 174.268C218.331 174.268 216.269 174.75 214.182 174.88C210.533 175.108 206.667 174.143 204.057 171.581C202.822 170.367 201.886 168.826 200.443 167.869C198.503 166.583 195.932 166.584 193.722 167.313C191.26 168.125 189.29 170.346 186.598 170.04C183.799 169.722 180.555 168.732 179.457 172.42C179.141 173.482 179.249 174.647 178.849 175.68C178.232 177.272 176.595 178.17 175.3 179.282C172.691 181.522 171.305 184.926 170.838 188.334C170.371 191.741 170.732 195.202 171.094 198.623C171.289 200.468 171.545 202.453 172.812 203.808C174.578 205.697 177.54 205.624 180.116 205.411C183.109 205.164 186.101 204.917 189.094 204.669C190.707 204.536 192.545 204.48 193.694 205.621C194.382 206.305 194.673 207.294 195.278 208.053C195.822 208.698 196.568 209.14 197.394 209.307C198.221 209.474 199.08 209.355 199.831 208.971C199.224 210.056 198.893 211.274 198.869 212.517C198.844 213.76 199.126 214.989 199.69 216.097C200.254 217.205 201.082 218.157 202.101 218.868C203.12 219.579 204.298 220.028 205.532 220.175L205.763 220.321C203.847 223.603 201.859 227.29 202.653 231.007C203.335 234.195 205.973 236.75 206.404 239.981C206.8 242.945 205.254 245.977 205.938 248.888C206.631 251.837 209.606 253.892 212.625 254.112C215.644 254.331 218.61 252.991 220.948 251.068C223.287 249.145 225.095 246.668 226.877 244.22C227.977 242.708 229.105 241.135 229.482 239.303C229.884 237.355 229.418 235.195 230.366 233.445C231.458 231.427 234.05 230.671 235.359 228.786C237.054 226.346 236.055 223.023 236.43 220.075C237.357 212.779 246.621 208.233 246.41 200.882Z" fill="#E6E6E6"/>
<path d="M245.072 225.787C244.819 226.926 243.753 227.676 242.737 228.25C241.722 228.823 240.604 229.402 240.087 230.447C239.557 231.518 239.799 232.795 240.076 233.957C240.653 236.376 241.333 238.767 242.115 241.13C243.631 238.264 244.954 235.301 246.076 232.259C246.551 231.126 246.845 229.926 246.946 228.702C246.992 228.089 246.91 227.474 246.704 226.895C246.498 226.316 246.173 225.786 245.75 225.341L245.072 225.787Z" fill="#E6E6E6"/>
<path d="M307.411 213.1C306.139 211.629 304.866 210.159 303.593 208.689C302.722 207.683 301.73 206.609 300.411 206.441L299.868 206.788C300.971 209.418 302.075 212.047 303.179 214.677C303.569 215.878 304.257 216.96 305.178 217.824C306.166 218.6 307.768 218.749 308.592 217.8C308.857 217.445 309.025 217.025 309.077 216.584C309.13 216.143 309.066 215.696 308.891 215.288C308.532 214.476 308.031 213.735 307.411 213.1Z" fill="#E6E6E6"/>
<path d="M319.745 215.915C320.227 215.748 320.668 215.482 321.04 215.135C321.413 214.787 321.709 214.366 321.909 213.897C322.303 212.959 322.564 211.969 322.683 210.958C322.901 209.642 323.118 208.325 323.336 207.009L323.051 206.935C322.775 206.803 322.459 206.775 322.164 206.857C321.869 206.939 321.613 207.125 321.444 207.381C321.124 207.904 320.881 208.471 320.724 209.064C320.643 209.36 320.497 209.635 320.296 209.866C320.094 210.098 319.843 210.281 319.561 210.402C318.539 210.711 317.572 209.627 316.505 209.669C316.074 209.724 315.675 209.924 315.372 210.235C315.068 210.546 314.88 210.951 314.836 211.384C314.774 212.257 315.021 213.123 315.534 213.832C316.444 215.245 318.132 216.38 319.745 215.915Z" fill="#E6E6E6"/>
<path d="M326.783 218.411L329.717 210.681C328.528 211.543 327.618 212.734 327.096 214.108C326.575 215.481 326.467 216.977 326.783 218.411Z" fill="#E6E6E6"/>
<path d="M341.754 212.179L341.161 212.204C340.896 212.729 340.755 213.308 340.749 213.896C340.744 214.484 340.873 215.065 341.129 215.595C341.649 216.65 342.406 217.572 343.342 218.286C344.791 219.483 346.445 220.408 348.224 221.014C350.832 221.775 353.529 222.191 356.246 222.25C357.799 222.352 359.352 222.454 360.905 222.555C361.645 222.604 362.601 222.51 362.807 221.797C362.977 221.209 362.476 220.656 362.008 220.261C357.899 216.801 352.918 214.539 347.611 213.722C345.598 213.416 343.461 213.29 341.754 212.179Z" fill="#E6E6E6"/>
<path d="M358.33 232.696C357.214 231.612 356.097 230.528 354.98 229.445C353.894 228.391 352.266 227.274 351.022 228.135C350.306 228.629 350.086 229.594 349.479 230.218C349.11 230.549 348.664 230.782 348.181 230.897C347.699 231.012 347.196 231.005 346.717 230.876C345.763 230.607 344.861 230.18 344.05 229.611L341.278 227.89C340.322 227.296 339.366 226.703 338.409 226.109L336.251 228.207C336.345 227.175 334.969 226.504 334.016 226.912C333.564 227.166 333.174 227.519 332.876 227.945C332.579 228.371 332.381 228.858 332.297 229.371C332.139 230.396 331.862 231.399 331.472 232.36C330.377 234.459 327.716 235.081 325.376 235.432C323.035 235.784 320.384 236.279 319.131 238.288C318.087 239.962 318.4 242.111 318.749 244.052L320.068 251.397C320.13 252.287 320.487 253.13 321.082 253.795C322.241 254.818 324.035 254.196 325.45 253.572C328.406 252.149 331.579 251.229 334.838 250.849C338.125 250.481 341.433 251.329 344.139 253.233C345.816 254.511 347.095 256.28 348.872 257.415C350.096 258.152 351.473 258.6 352.896 258.724C354.319 258.848 355.752 258.646 357.085 258.132C359.757 257.067 361.969 255.094 363.331 252.559C364.541 250.323 365.147 247.812 365.092 245.27C365.037 242.729 364.321 240.246 363.016 238.065C361.683 236.088 360.109 234.284 358.33 232.696Z" fill="#E6E6E6"/>
<path d="M355.037 262.62C354.769 262.945 354.613 263.348 354.59 263.769C354.567 264.191 354.68 264.608 354.912 264.96C355.399 265.658 356.141 266.136 356.977 266.29C357.805 266.439 358.649 266.477 359.488 266.405L359.513 265.779C359.29 264.679 358.783 263.657 358.043 262.814C357.234 262.044 355.804 261.808 355.037 262.62Z" fill="#E6E6E6"/>
<path d="M383.797 263.29L383.397 263.143C382.444 264.58 381.491 266.017 380.538 267.455C380.025 268.228 379.49 269.157 379.803 270.03C380.173 271.064 381.542 271.367 382.605 271.094C383.416 270.874 384.148 270.426 384.714 269.804C385.281 269.182 385.658 268.412 385.802 267.583C385.919 266.75 385.792 265.901 385.436 265.139C385.08 264.376 384.511 263.734 383.797 263.29Z" fill="#E6E6E6"/>
<path d="M391.062 258.728L388.431 256.636C388.396 257.607 388.361 258.578 388.326 259.548L388.227 259.55C388.834 260.082 389.406 260.652 389.942 261.256C390.558 261.78 391.591 262.02 392.117 261.406C392.275 261.186 392.364 260.925 392.374 260.655C392.384 260.385 392.315 260.118 392.174 259.887C391.885 259.43 391.506 259.036 391.062 258.728Z" fill="#E6E6E6"/>
<path d="M343.532 167.68C342.428 167.646 341.206 167.579 340.35 168.278C340.069 168.529 339.822 168.817 339.616 169.134L339.314 169.556C338.863 170.148 338.469 170.781 338.139 171.448C337.967 171.76 337.863 172.106 337.835 172.462C337.808 172.818 337.857 173.175 337.979 173.511C338.05 173.671 338.155 173.814 338.287 173.929C338.419 174.044 338.575 174.129 338.743 174.177C338.911 174.225 339.088 174.236 339.261 174.208C339.434 174.181 339.599 174.116 339.743 174.017C340.215 173.58 340.105 172.787 340.462 172.251C340.619 172.049 340.821 171.887 341.051 171.777C341.282 171.666 341.535 171.611 341.79 171.616C342.3 171.628 342.807 171.686 343.307 171.787C344.691 171.977 346.1 171.766 347.368 171.18C348.637 170.594 349.711 169.657 350.464 168.48C351.217 167.303 351.618 165.935 351.619 164.537C351.62 163.14 351.221 161.771 350.469 160.593L350.38 160.321C349.616 160.292 348.866 160.532 348.26 160.999C347.654 161.466 347.231 162.132 347.065 162.879C346.818 164.166 347.341 165.661 346.562 166.714C345.904 167.602 344.635 167.715 343.532 167.68Z" fill="#E6E6E6"/>
<path d="M353.414 154.036L353.246 154.021C352.258 154.201 351.311 154.555 350.446 155.065C350.162 155.197 349.936 155.426 349.808 155.712C349.771 155.864 349.771 156.022 349.81 156.174C349.849 156.325 349.925 156.464 350.031 156.579C350.245 156.805 350.496 156.994 350.773 157.138C351.186 157.413 351.642 157.617 352.122 157.742C352.363 157.801 352.615 157.8 352.856 157.738C353.096 157.675 353.317 157.554 353.5 157.385C353.67 157.151 353.788 156.881 353.844 156.596C353.899 156.311 353.892 156.017 353.823 155.735C353.744 155.156 353.607 154.587 353.414 154.036Z" fill="#E6E6E6"/>
<path d="M336.398 168.008C336.662 167.585 336.849 167.119 336.952 166.631C337.055 166.252 337.158 165.873 337.261 165.494L336.16 164.825C335.635 165.099 335.15 165.445 334.72 165.853C334.506 166.058 334.337 166.306 334.223 166.58C334.109 166.854 334.053 167.149 334.059 167.445C334.074 167.742 334.189 168.024 334.385 168.247C334.582 168.47 334.847 168.62 335.139 168.672C335.389 168.68 335.636 168.623 335.856 168.506C336.077 168.39 336.264 168.218 336.398 168.008Z" fill="#E6E6E6"/>
<path d="M216.517 65.6149C216.082 65.8863 216.205 66.5424 216.381 67.0241C216.584 67.5772 216.787 68.1302 216.989 68.6833L217.273 67.6097C217.522 67.1933 217.632 66.7083 217.587 66.2252C217.488 65.7533 216.926 65.3599 216.517 65.6149Z" fill="#E6E6E6"/>
<path d="M491.268 165.239H307.21C302.774 165.234 298.521 163.469 295.384 160.33C292.247 157.191 290.483 152.936 290.478 148.497V16.7423C290.483 12.3035 292.248 8.04797 295.384 4.90928C298.521 1.77058 302.774 0.00504965 307.21 0H491.268C495.704 0.00504773 499.957 1.77058 503.094 4.90928C506.23 8.04797 507.995 12.3035 508 16.7423V148.497C507.995 152.936 506.231 157.191 503.094 160.33C499.957 163.469 495.704 165.234 491.268 165.239Z" fill="white"/>
<path d="M491.268 165.239H307.21C302.774 165.234 298.521 163.469 295.384 160.33C292.247 157.191 290.483 152.936 290.478 148.497V16.7423C290.483 12.3035 292.248 8.04797 295.384 4.90928C298.521 1.77058 302.774 0.00504965 307.21 0H491.268C495.704 0.00504773 499.957 1.77058 503.094 4.90928C506.23 8.04797 507.995 12.3035 508 16.7423V148.497C507.995 152.936 506.231 157.191 503.094 160.33C499.957 163.469 495.704 165.234 491.268 165.239ZM307.21 1.45585C303.16 1.4604 299.277 3.07239 296.413 5.93817C293.549 8.80394 291.938 12.6895 291.933 16.7423V148.497C291.938 152.55 293.549 156.435 296.413 159.301C299.277 162.167 303.16 163.779 307.21 163.783H491.268C495.318 163.779 499.201 162.167 502.065 159.301C504.929 156.435 506.54 152.55 506.545 148.497V16.7423C506.54 12.6895 504.929 8.80394 502.065 5.93817C499.201 3.07239 495.318 1.4604 491.268 1.45585H307.21Z" fill="#3F3D56"/>
<path d="M357.288 20.0607H328.188C327.416 20.0607 326.676 19.7539 326.13 19.2079C325.584 18.6618 325.278 17.9212 325.278 17.149C325.278 16.3768 325.584 15.6362 326.13 15.0901C326.676 14.5441 327.416 14.2373 328.188 14.2373H357.288C358.059 14.2373 358.8 14.5441 359.345 15.0901C359.891 15.6362 360.198 16.3768 360.198 17.149C360.198 17.9212 359.891 18.6618 359.345 19.2079C358.8 19.7539 358.059 20.0607 357.288 20.0607Z" fill="#CCCCCC"/>
<path d="M420.58 85.5744H328.188C327.416 85.5744 326.676 85.2676 326.13 84.7216C325.584 84.1755 325.278 83.4349 325.278 82.6627C325.278 81.8904 325.584 81.1498 326.13 80.6038C326.676 80.0577 327.416 79.751 328.188 79.751H420.58C421.352 79.751 422.092 80.0577 422.638 80.6038C423.183 81.1498 423.49 81.8904 423.49 82.6627C423.49 83.4349 423.183 84.1755 422.638 84.7216C422.092 85.2676 421.352 85.5744 420.58 85.5744Z" fill="#CCCCCC"/>
<path d="M344.554 67.1928C355.329 67.1928 364.064 58.4524 364.064 47.6706C364.064 36.8888 355.329 28.1484 344.554 28.1484C333.778 28.1484 325.043 36.8888 325.043 47.6706C325.043 58.4524 333.778 67.1928 344.554 67.1928Z" fill="#34E8BD"/>
<path d="M329.643 141.179H325.278V142.635H329.643V141.179Z" fill="#3F3D56"/>
<path d="M457.805 142.635H448.651V141.179H457.805V142.635ZM439.496 142.635H430.342V141.179H439.496V142.635ZM421.187 142.635H412.033V141.179H421.187V142.635ZM402.879 142.635H393.724V141.179H402.879L402.879 142.635ZM384.57 142.635H375.415V141.179H384.57V142.635ZM366.261 142.635H357.106V141.179H366.261L366.261 142.635ZM347.952 142.635H338.797V141.179H347.952V142.635Z" fill="#3F3D56"/>
<path d="M471.324 141.179H466.959V142.635H471.324V141.179Z" fill="#3F3D56"/>
<path d="M399.365 115.419H395.728V140.169H399.365V115.419Z" fill="#34E8BD"/>
<path d="M436.467 115.419H432.83V140.169H436.467V115.419Z" fill="#34E8BD"/>
<path d="M454.655 129.25H451.017V140.169H454.655V129.25Z" fill="#34E8BD"/>
<path d="M417.553 104.5H413.915V140.169H417.553V104.5Z" fill="#34E8BD"/>
<path d="M65.4434 164.918C67.8541 164.918 69.8083 162.963 69.8083 160.551C69.8083 158.139 67.8541 156.183 65.4434 156.183C63.0326 156.183 61.0784 158.139 61.0784 160.551C61.0784 162.963 63.0326 164.918 65.4434 164.918Z" fill="#34E8BD"/>
<path d="M77.0834 143.808C79.4941 143.808 81.4484 141.853 81.4484 139.441C81.4484 137.029 79.4941 135.073 77.0834 135.073C74.6727 135.073 72.7184 137.029 72.7184 139.441C72.7184 141.853 74.6727 143.808 77.0834 143.808Z" fill="#34E8BD"/>
<path d="M205.123 127.066C207.534 127.066 209.488 125.111 209.488 122.699C209.488 120.286 207.534 118.331 205.123 118.331C202.712 118.331 200.758 120.286 200.758 122.699C200.758 125.111 202.712 127.066 205.123 127.066Z" fill="#34E8BD"/>
<path d="M104.928 434.911L111.512 434.911L114.644 409.501L104.926 409.502L104.928 434.911Z" fill="#FFB6B6"/>
<path d="M104.696 441.783L124.942 441.783V441.527C124.942 439.435 124.111 437.43 122.634 435.951C121.156 434.473 119.152 433.642 117.062 433.642L113.363 430.834L106.463 433.642L104.696 433.642L104.696 441.783Z" fill="#2F2E41"/>
<path d="M154.398 434.911L160.982 434.911L164.113 409.501L154.396 409.502L154.398 434.911Z" fill="#FFB6B6"/>
<path d="M154.166 441.783L174.412 441.783V441.527C174.412 439.435 173.581 437.43 172.103 435.951C170.626 434.473 168.621 433.642 166.531 433.642L162.833 430.834L155.933 433.642L154.166 433.642L154.166 441.783Z" fill="#2F2E41"/>
<path d="M104.672 228.209L116.356 226.534C120.308 233.146 121.712 250.744 121.712 250.744L133.147 277.938C133.904 278.453 134.512 279.158 134.911 279.983C135.309 280.807 135.483 281.722 135.416 282.636C135.348 283.549 135.041 284.429 134.526 285.186C134.011 285.943 133.305 286.551 132.481 286.949C131.656 287.346 130.741 287.519 129.828 287.451C128.915 287.382 128.037 287.074 127.28 286.558C126.524 286.041 125.918 285.334 125.521 284.509C125.125 283.683 124.953 282.768 125.023 281.854L106.248 250.201L104.672 228.209Z" fill="#FFB6B6"/>
<path d="M111.005 195.752C109.196 196.033 107.472 196.708 105.954 197.731C104.436 198.754 103.162 200.099 102.223 201.67C101.283 203.242 100.702 205.001 100.519 206.823C100.337 208.645 100.558 210.485 101.167 212.212L103.646 219.244C103.646 219.244 100.523 240.417 105.67 246.394L121.465 244.963C121.465 244.963 118.577 234.281 120.794 229.113C122.152 225.947 122.077 215.015 120.739 206.122C119.717 199.331 117.787 194.701 111.005 195.752Z" fill="#3F3D56"/>
<path d="M165.474 259.548C165.474 259.548 177.649 271.429 175.049 274.173C172.449 276.917 166.502 280.76 172.022 281.386C177.542 282.012 179.832 283.369 175.049 284.51C170.267 285.652 171.006 288.582 171.006 288.582C171.006 288.582 178.206 322.878 172.749 345.444C172.749 345.444 169.713 407.078 167.807 411.878C165.902 416.678 165.174 413.767 165.902 416.678C166.629 419.59 168.084 414.495 166.629 419.59C165.835 422.252 165.207 424.96 164.747 427.699L150.515 425.515C150.515 425.515 148.224 418.289 150.515 416.392C152.807 414.495 154.862 415.664 152.379 411.44C149.897 407.215 149.169 413.039 149.897 407.215C150.624 401.392 147.587 369.896 152.379 353.251L143.523 306.546L129.463 354.907C129.463 354.907 122.005 413.971 119.582 416.052C117.159 418.134 113.522 414.495 117.159 418.134C120.797 421.774 120.733 421.148 120.797 421.774C121.474 428.451 100.646 421.148 100.646 421.148C100.762 419.451 100.762 417.749 100.646 416.052C100.427 414.495 103.048 413.996 100.646 412.425C98.2443 410.855 101.818 412.413 101.818 412.413C101.818 412.413 107.189 368.839 111.276 355.635L116.005 291.332C116.005 291.332 116.305 292.615 116.005 289.497C115.704 286.38 113.522 288.563 115.704 286.38C117.887 284.196 119.342 283.083 117.887 281.456C116.432 279.828 112.418 276.536 114.789 274.542C117.159 272.549 121.824 259.548 121.824 259.548L167.293 259.912" fill="#2F2E41"/>
<path d="M148.379 187.357L140.18 178.121L127.226 179.561L118.932 191.175C114.517 192.19 110.659 194.86 108.152 198.635C105.645 202.41 104.679 207.003 105.453 211.469C108.671 230.013 119.609 247.998 115.997 257.148C110.515 271.037 110.181 276.701 123.304 274.754C136.427 272.807 180.393 268.318 171.869 259.789C163.345 251.26 161.473 237.007 161.473 237.007L161.131 204.401C161.494 202.434 161.445 200.414 160.99 198.466C160.534 196.519 159.68 194.688 158.482 193.087C157.284 191.486 155.768 190.151 154.029 189.165C152.291 188.179 150.367 187.563 148.379 187.357Z" fill="#3F3D56"/>
<path d="M146.139 223.114L157.823 221.439C161.775 228.051 163.179 245.649 163.179 245.649L174.614 272.843C175.371 273.357 175.98 274.063 176.378 274.887C176.776 275.712 176.95 276.627 176.883 277.541C176.815 278.454 176.509 279.334 175.993 280.091C175.478 280.848 174.773 281.456 173.948 281.853C173.123 282.251 172.208 282.424 171.295 282.356C170.383 282.287 169.504 281.979 168.748 281.462C167.992 280.946 167.385 280.239 166.989 279.414C166.592 278.588 166.42 277.672 166.49 276.759L147.715 245.106L146.139 223.114Z" fill="#FFB6B6"/>
<path d="M152.472 190.657C150.664 190.937 148.939 191.612 147.421 192.635C145.903 193.658 144.629 195.003 143.69 196.575C142.751 198.146 142.169 199.906 141.987 201.728C141.804 203.55 142.025 205.389 142.634 207.116L145.114 214.148C145.114 214.148 141.99 235.321 147.138 241.298L162.932 239.868C162.932 239.868 160.045 229.185 162.262 224.017C163.619 220.852 163.544 209.919 162.206 201.026C161.185 194.235 159.254 189.606 152.472 190.657Z" fill="#3F3D56"/>
<path d="M130.141 177.325C138.789 177.325 145.799 170.311 145.799 161.658C145.799 153.005 138.789 145.991 130.141 145.991C121.493 145.991 114.483 153.005 114.483 161.658C114.483 170.311 121.493 177.325 130.141 177.325Z" fill="#FFB6B6"/>
<path d="M127.261 176.995C131.622 175.901 131.77 174.654 136.131 173.561C137.52 173.213 139.129 172.665 139.54 171.293C139.638 170.791 139.618 170.274 139.482 169.781C139.346 169.288 139.097 168.834 138.756 168.453C138.069 167.7 137.425 166.909 136.828 166.083C136.433 165.419 136.205 164.669 136.164 163.897C136.123 163.126 136.271 162.356 136.594 161.654C136.917 160.952 137.406 160.34 138.019 159.869C138.632 159.399 139.35 159.085 140.111 158.955C141.46 158.724 142.851 159.082 144.209 158.909C146.071 158.671 148.809 151.759 147.616 150.31C146.454 148.899 144.546 148.057 143.906 146.345C143.487 145.225 143.716 143.973 143.529 142.792C143.252 141.041 139.711 145.889 140.182 144.18C141.339 139.988 121.774 139.328 119.737 144.706C118.976 146.716 116.915 147.036 115.33 148.487C114.291 149.438 111.806 152.481 111.446 154.121C111.147 155.779 111.205 157.482 111.614 159.117C113.239 166.779 115.925 173.57 123.073 176.762" fill="#2F2E41"/>
<path d="M3.78426 442.776L287.309 443C287.423 443 287.536 442.978 287.641 442.935C287.747 442.891 287.842 442.828 287.923 442.747C288.004 442.667 288.068 442.571 288.112 442.466C288.155 442.36 288.178 442.247 288.178 442.133C288.178 442.019 288.155 441.906 288.112 441.801C288.068 441.696 288.004 441.6 287.923 441.52C287.842 441.439 287.747 441.375 287.641 441.332C287.536 441.289 287.423 441.266 287.309 441.267L3.78426 441.043C3.6703 441.043 3.55739 441.065 3.452 441.108C3.34662 441.152 3.25083 441.215 3.17012 441.296C3.08942 441.376 3.0254 441.472 2.98171 441.577C2.93802 441.683 2.91553 441.796 2.91553 441.91C2.91553 442.024 2.93802 442.137 2.98171 442.242C3.0254 442.347 3.08942 442.443 3.17012 442.523C3.25083 442.604 3.34662 442.668 3.452 442.711C3.55739 442.755 3.6703 442.777 3.78426 442.776Z" fill="#CACACA"/>
</g>
<defs>
<clipPath id="clip0_84_103">
<rect width="508" height="443" fill="white"/>
</clipPath>
</defs>
</svg>
