<svg width="608" height="369" viewBox="0 0 608 369" fill="none" xmlns="http://www.w3.org/2000/svg">
<g clip-path="url(#clip0_84_45)">
<path d="M498.296 352.866L491.975 351.415L495.798 322.9L505.126 325.04L498.296 352.866Z" fill="#FFB6B6"/>
<path d="M473.34 360.22C473.064 361.258 473.594 362.292 474.523 362.528L486.994 365.695C486.994 365.695 489.501 361.179 495.055 360.372L493.569 367.366L500.002 369L502.167 357.697C502.167 357.697 505.463 352.193 502.695 348.249C499.926 344.304 502.709 345.462 502.709 345.462L503.125 338.232L493.108 336.882L490.175 347.652L482.619 357.163L474.812 358.751C474.117 358.892 473.539 359.469 473.34 360.22Z" fill="#2F2E41"/>
<path d="M558.892 346.138L553.127 349.061L537.08 324.969L545.588 320.655L558.892 346.138Z" fill="#FFB6B6"/>
<path d="M544.825 367.612C545.306 368.576 546.395 369.024 547.258 368.611L558.834 363.078C558.834 363.078 557.737 358.051 561.42 353.902L564.939 360.16L570.911 357.306L565.044 347.343C565.044 347.343 563.89 341.064 559.165 339.831C554.441 338.597 557.324 337.705 557.324 337.705L552.835 331.949L544.329 337.301L549.26 347.348L549.841 359.383L544.967 365.559C544.533 366.109 544.477 366.915 544.825 367.612Z" fill="#2F2E41"/>
<path d="M220.791 240.229H388.34C390.449 240.229 392.159 238.555 392.159 236.49V4.43753C392.159 2.37292 390.449 0.699219 388.34 0.699219H220.791C218.682 0.699219 216.972 2.37292 216.972 4.43753V236.49C216.972 238.555 218.682 240.229 220.791 240.229Z" fill="white"/>
<path d="M392.874 240.928H216.257V0H392.874V240.928ZM217.686 239.529H391.445V1.3985H217.686V239.529Z" fill="#E6E6E6"/>
<path d="M353.182 38.5952C353.862 38.5952 354.413 39.1346 354.413 39.8V42.2096C354.413 42.875 353.862 43.4144 353.182 43.4144H255.949C255.269 43.4144 254.718 42.875 254.718 42.2096V39.8C254.718 39.1346 255.269 38.5952 255.949 38.5952H353.182Z" fill="#E6E6E6"/>
<path d="M353.182 50.0396C353.862 50.0396 354.413 50.5789 354.413 51.2443V53.654C354.413 54.3194 353.862 54.8588 353.182 54.8588H255.949C255.269 54.8588 254.718 54.3193 254.718 53.654V51.2443C254.718 50.579 255.269 50.0396 255.949 50.0396H353.182Z" fill="#E6E6E6"/>
<path d="M353.182 61.4839C353.862 61.4839 354.413 62.0233 354.413 62.6887V65.0983C354.413 65.7637 353.862 66.3031 353.182 66.3031H255.949C255.269 66.3031 254.718 65.7637 254.718 65.0983V62.6894C254.718 62.024 255.269 61.4846 255.949 61.4846L353.182 61.4839Z" fill="#34E8BD"/>
<path d="M532.151 91.5083H564.45C564.402 90.023 564.725 88.5487 565.389 87.2126C565.408 88.6953 565.741 90.1581 566.367 91.5083H567.834C570.078 91.506 571.896 89.7261 571.899 87.5298V66.9875C571.898 56.9295 563.111 41.8519 553.564 48.1612C553.256 48.1454 548.417 46.0474 548.108 46.0474C539.709 46.054 536.821 53.4725 534.285 61.3094C531.394 60.0058 529.403 65.447 527.963 75.0242C527.542 77.8191 527.169 80.9661 526.833 84.4006C525.907 87.2822 527.544 90.3528 530.488 91.2591C531.027 91.425 531.588 91.5099 532.153 91.511L532.151 91.5083Z" fill="#2F2E41"/>
<path d="M468.772 208.95C467.171 212.665 467.831 216.485 470.246 217.482C472.662 218.48 475.918 216.276 477.519 212.56C478.179 211.084 478.469 209.474 478.364 207.866L484.946 192.041L477.293 189.175L471.614 205.081C470.364 206.13 469.389 207.456 468.769 208.949L468.772 208.95Z" fill="#FFB6B6"/>
<path d="M539.54 84.5552L554.977 87.7159L552.609 94.6684L557.345 147.846L549.453 164.968L501.305 161.105L513.145 137.928C513.145 137.928 508.409 118.615 514.723 114.751C521.038 110.886 531.299 91.5733 531.299 91.5733L539.54 84.5552Z" fill="#34E8BD"/>
<path d="M553.93 90.791L567.607 96.2107L562.871 164.193L573.132 222.906L539.981 228.314C539.981 228.314 543.928 98.5284 546.295 96.2107C548.663 93.8929 553.93 90.7876 553.93 90.7876V90.791Z" fill="#2F2E41"/>
<path d="M527.145 99.2695C527.145 99.2695 518.246 93.7589 513.438 97.8392C508.63 101.92 471.614 200.552 471.614 200.552L481.598 204.798L504.496 157.807L527.145 99.2695Z" fill="#2F2E41"/>
<path d="M501.652 265.453L492.625 333.381L505.253 334.154C505.253 334.154 511.82 316.617 519.311 295.96C520.905 291.579 522.539 287.06 524.157 282.533C525.909 277.62 527.654 272.707 529.311 267.964C533.407 256.268 536.999 245.622 539.051 238.669C539.406 237.449 539.721 236.345 539.982 235.371C545.504 214.605 548.663 160.337 548.663 160.337L502.884 156.475L502.395 157.069L492.625 169.02L493.082 171.547L505.253 238.363L501.654 265.456L501.652 265.453Z" fill="#2F2E41"/>
<path d="M505.251 238.362L501.652 265.455L517.841 293.35L519.308 295.961L541.597 335.607L552.608 329.496C552.608 329.496 538.283 297.274 529.308 267.964C528.313 264.742 527.39 261.551 526.561 258.446C524.122 249.353 528.116 232.759 526.554 228.185C521.273 212.75 504.066 181.872 496.079 167.883L493.079 171.545L505.251 238.362Z" fill="#2F2E41"/>
<path d="M531.498 90.9917L515.516 96.987L473.682 216.73L498.94 220.593L510.78 151.065L531.498 90.9917Z" fill="#2F2E41"/>
<path d="M571.467 220.244C571.874 224.257 574.318 227.304 576.927 227.05C579.536 226.797 581.321 223.339 580.914 219.325C580.774 217.719 580.243 216.17 579.365 214.806L577.423 197.826L569.302 198.887L572.078 215.514C571.491 217.021 571.282 218.642 571.467 220.244Z" fill="#FFB6B6"/>
<path d="M562.08 96.2144C562.08 96.2144 572.341 93.8967 575.498 99.3047C578.656 104.713 580.234 209.777 580.234 209.777L569.377 210.55L563.659 158.792L562.081 96.2165L562.08 96.2144Z" fill="#2F2E41"/>
<path d="M548.985 82.6813C558.047 82.6813 565.393 75.4916 565.393 66.6226C565.393 57.7537 558.047 50.564 548.985 50.564C539.924 50.564 532.578 57.7537 532.578 66.6226C532.578 75.4916 539.924 82.6813 548.985 82.6813Z" fill="#FFB6B6"/>
<path d="M555.571 91.5078H563.674C564.086 91.5078 564.436 91.197 564.455 90.7945L564.457 90.7502C564.501 89.9111 565.704 89.77 565.983 90.5645C566.096 90.884 566.224 91.1988 566.367 91.5078H567.164V66.7503C567.164 62.5039 563.647 59.0615 559.308 59.0615C555.604 59.0615 552.403 61.5941 551.627 65.1391C551.627 65.1391 546.121 71.7497 549.366 75.4663C552.611 79.1828 547.89 82.2079 547.89 82.2079C546.842 86.9943 550.57 91.5078 555.571 91.5078Z" fill="#2F2E41"/>
<path d="M286.921 120.346C288.739 119.199 289.122 116.742 287.85 115.03L281.892 107.005C280.5 105.129 277.819 104.713 275.902 106.074C275.732 106.195 275.571 106.328 275.421 106.472C265.333 111.75 259.902 119.459 265.94 128.572C265.94 130.094 266.054 131.614 266.279 133.119C266.377 133.773 266.602 134.412 266.983 134.957C268.114 136.575 270.109 137.169 271.865 136.609L281.609 133.51C283.68 132.852 284.8 130.64 284.036 128.645C283.047 126.067 283.455 122.534 286.921 120.346Z" fill="#F2F2F2"/>
<path d="M310.048 144.016C307.244 143.745 304.851 146.006 304.851 148.764V156.991C304.851 157.204 304.867 157.417 304.9 157.628C305.261 159.92 307.452 161.493 309.794 161.14C323.45 162.787 332.782 156.975 333.344 144.223C333.433 144.044 333.509 143.859 333.572 143.669C334.3 141.466 333.065 139.102 330.813 138.389L322.655 135.795C319.84 134.9 316.915 136.688 316.422 139.545C315.977 142.125 314.238 144.421 310.048 144.016Z" fill="#E6E6E6"/>
<path d="M259.607 152.06C262.439 168.511 277.187 174.752 292.569 175.739C292.87 175.784 293.174 175.807 293.479 175.807C296.796 175.809 299.487 173.178 299.488 169.931V156.174C299.488 152.326 296.266 149.329 292.335 149.29C288.534 149.253 286.057 147.492 285.04 144.26C283.877 140.569 279.733 138.622 275.979 139.816L263.149 143.897C261.487 144.425 260.142 145.634 259.464 147.21C258.79 148.77 258.842 150.541 259.607 152.06Z" fill="#3F3D56"/>
<path d="M338.647 95.1762C336.279 92.9062 332.479 92.9447 330.16 95.2621C329.954 95.4683 329.763 95.6892 329.59 95.9229L318.19 111.28C316.733 113.244 317.566 115.98 319.844 116.939C325.181 119.185 324.62 124.226 322.882 127.312C322.031 128.824 322.734 130.716 324.411 131.25L343.621 137.359C346.782 138.358 350.171 136.66 351.191 133.566C351.294 133.255 351.37 132.936 351.418 132.612C351.749 130.459 351.914 128.285 351.914 126.109C355.164 114.248 350.667 103.068 338.647 95.1762Z" fill="#34E8BD"/>
<path d="M305.657 112.983C307.786 114.156 310.471 113.589 311.907 111.655L315.727 106.51C316.468 105.512 316.725 104.247 316.431 103.048C316.146 101.87 315.349 100.874 314.248 100.323C305.261 92.3751 294.624 91.8873 285.605 100.282C284.471 100.842 283.646 101.861 283.347 103.069C283.053 104.26 283.308 105.518 284.045 106.508L288.508 112.521C290.041 114.586 293.01 115.126 295.123 113.629C298.192 111.454 302.65 111.326 305.657 112.983Z" fill="#E6E6E6"/>
<path d="M608 367.778H0V368.955H608V367.778Z" fill="#E6E6E6"/>
<path d="M255.342 216.621C255.685 215.201 257.295 214.733 258.612 214.787C259.444 214.842 260.269 214.97 261.077 215.169C261.923 215.354 262.761 215.574 263.595 215.806C265.124 216.233 266.636 216.749 268.19 217.082C269.493 217.432 270.866 217.451 272.179 217.14C273.443 216.8 274.437 215.845 274.808 214.615C275.186 213.44 274.643 212.17 273.522 211.609C272.486 211.049 271.182 211.419 270.611 212.433C270.602 212.448 270.594 212.463 270.586 212.478C270.106 213.73 270.483 215.142 271.527 216.003C272.062 216.495 272.649 216.931 273.277 217.304C273.914 217.729 274.623 218.04 275.371 218.222C276.644 218.552 277.989 218.038 278.696 216.952C278.837 216.691 278.922 216.406 278.945 216.112C278.982 215.713 278.345 215.715 278.308 216.112C278.201 217.256 276.832 217.791 275.807 217.666C275.116 217.554 274.457 217.303 273.87 216.93C273.303 216.606 272.766 216.236 272.264 215.822C271.396 215.086 270.583 213.876 271.166 212.729C271.619 211.991 272.598 211.754 273.351 212.198C273.452 212.257 273.545 212.327 273.63 212.406C274.542 213.136 274.379 214.46 273.778 215.327C273.056 216.232 271.941 216.753 270.768 216.732C269.531 216.734 268.302 216.545 267.125 216.173C265.657 215.765 264.203 215.308 262.729 214.924C261.892 214.706 261.048 214.509 260.196 214.356C259.389 214.182 258.562 214.126 257.739 214.189C256.349 214.254 255.148 215.157 254.725 216.454C254.633 216.846 255.247 217.012 255.342 216.621Z" fill="#3F3D56"/>
<path d="M280.574 200.363C280.766 200.363 280.922 200.902 280.922 201.568V203.977C280.922 204.642 280.766 205.182 280.574 205.182H253.092C252.899 205.182 252.744 204.643 252.744 203.977V201.568C252.744 200.902 252.899 200.363 253.092 200.363H280.574Z" fill="#E6E6E6"/>
<path d="M354.066 200.363C354.258 200.363 354.413 200.902 354.413 201.568V203.977C354.413 204.642 354.258 205.182 354.066 205.182H326.583C326.391 205.182 326.235 204.643 326.235 203.977V201.568C326.235 200.902 326.391 200.363 326.583 200.363H354.066Z" fill="#E6E6E6"/>
<path d="M341.829 213.935L336.373 215.7L333.646 216.583C332.808 216.933 331.901 217.096 330.991 217.06C330.319 217.016 329.729 216.607 329.464 216.001C329.347 215.393 329.614 214.776 330.141 214.435C331.443 213.466 333.089 214.453 334.012 215.456C335.14 216.684 335.778 218.269 336.836 219.554C337.778 220.708 338.973 221.64 340.331 222.282C343.047 223.6 346.286 223.329 348.733 221.579C351.609 219.408 351.902 215.644 351.917 212.361C351.906 212.046 351.636 211.799 351.313 211.81C351.007 211.821 350.761 212.062 350.751 212.361C350.737 215.337 350.564 218.984 347.792 220.846C345.137 222.63 341.648 222.156 339.203 220.256C337.942 219.158 336.894 217.847 336.108 216.386C335.235 214.988 334.151 213.637 332.508 213.095C331.055 212.578 329.431 213.134 328.623 214.423C327.927 215.571 328.313 217.053 329.485 217.734C329.576 217.787 329.67 217.834 329.766 217.875C331.672 218.764 333.852 217.722 335.685 217.129L342.141 215.041C342.85 214.811 342.547 213.708 341.831 213.939L341.829 213.935Z" fill="#34E8BD"/>
<path d="M99.4102 346.827C99.339 346.766 99.2842 346.734 99.2471 346.734C98.3571 346.742 97.5641 347.199 97.1271 347.955L87.5441 365.374C87.3249 365.753 87.2173 366.168 87.221 366.582C87.2247 366.996 87.3397 367.409 87.5655 367.784C88.0173 368.534 109.181 368.804 109.181 368.804C110.071 368.796 112.514 358.08 99.4102 346.827Z" fill="#E6E6E6"/>
<path d="M62.7838 364.584L70.0575 364.521L73.2727 337.032L62.5375 337.124L62.7838 364.584Z" fill="#FFB6B6"/>
<path d="M87.7026 364.21C87.9324 364.581 88.0627 365.785 88.0665 366.219C88.0785 367.553 86.9829 368.645 85.6194 368.656L63.0938 368.849C62.1636 368.857 61.403 368.125 61.3949 367.215L61.3867 366.297C61.3867 366.297 60.2478 363.548 62.5116 360.128C62.5116 360.128 65.3868 362.766 69.6103 358.559L70.8468 356.321L79.9998 362.753L85.0463 363.318C86.1504 363.441 87.127 363.279 87.7026 364.21Z" fill="#2F2E41"/>
<path d="M90.4552 340.85L97.3663 343.071L109.407 318.037L99.2073 314.76L90.4552 340.85Z" fill="#FFB6B6"/>
<path d="M114.184 348.307C114.28 348.731 114.01 349.912 113.871 350.324C113.446 351.592 112.051 352.283 110.756 351.866L89.3536 344.988C88.4698 344.703 87.9887 343.772 88.2789 342.907L88.5715 342.035C88.5715 342.035 88.3921 339.074 91.6558 336.543C91.6558 336.543 93.5162 339.944 98.8938 337.283L100.798 335.55L107.364 344.513L111.96 346.629C112.965 347.092 113.943 347.245 114.184 348.307Z" fill="#2F2E41"/>
<path d="M100.214 181.459L114.746 227.065L131.782 268.052L105.959 327.03L91.5908 321.551L104.45 270.506L82.4679 232.392L72.0794 346.806L59.4417 345.325L43.0099 208.273L45.5869 178.47L100.214 181.459Z" fill="#2F2E41"/>
<path d="M85.3451 77.6197L69.6434 73.9102L65.3119 83.9793C65.3119 83.9793 44.0942 87.4875 43.0097 103.386C43.0097 103.386 38.781 124.255 41.4879 130.084C44.1949 135.914 50.8684 156.528 50.8684 156.528C50.8684 156.528 40.302 182.212 43.0097 183.799C45.7174 185.386 103.736 191.174 103.736 187.995C103.736 184.815 104.398 147.04 104.398 147.04L102.126 89.8061L87.5112 84.5093L85.3451 77.6197Z" fill="#E6E6E6"/>
<path d="M82.6877 75.059C91.4263 75.059 98.5103 68.1255 98.5103 59.5725C98.5103 51.0195 91.4263 44.0859 82.6877 44.0859C73.949 44.0859 66.865 51.0195 66.865 59.5725C66.865 68.1255 73.949 75.059 82.6877 75.059Z" fill="#FFB6B6"/>
<path d="M72.2106 61.8748C73.4735 62.5509 72.2767 65.7813 73.0659 66.0603C73.9782 66.3828 77.3026 62.6764 77.3423 58.5263C77.3543 57.2703 77.0588 56.6672 77.3423 55.1779C77.7132 53.2297 78.8526 50.9317 79.9082 50.9923C80.5339 51.0283 81.1452 51.8939 81.1911 52.6666C81.2554 53.7495 80.1808 54.1761 80.3358 54.7593C80.6311 55.8703 85.1444 56.6359 86.7504 54.7593C88.0095 53.2882 87.0426 50.7062 87.6057 50.5738C88.0208 50.4762 88.4669 51.8977 90.1715 53.5037C90.8138 54.1087 91.7689 55.0086 92.3097 54.7593C93.0912 54.3992 92.5225 51.8632 92.7374 51.8295C92.9153 51.8016 93.0277 53.5842 94.0203 55.1779C95.2956 57.2254 97.9254 58.803 99.152 58.1078C99.9035 57.6818 99.9624 56.4966 100.007 55.5965C100.102 53.7001 102.916 49.3371 102.187 47.3086C100.703 43.1802 98.1632 46.0916 97.0138 44.714C95.4577 42.8492 94.0625 43.8526 91.4545 41.7841C88.9066 39.7635 88.8837 37.7317 87.178 37.5986C85.6419 37.4787 85.0963 39.0826 83.3293 38.8543C81.8324 38.6608 81.5063 37.4171 80.3358 37.5986C79.2642 37.7648 79.1939 38.8605 77.77 39.2728C76.8609 39.536 76.661 39.1556 75.6318 39.2728C73.4902 39.5168 72.0523 41.4264 71.783 41.7841C70.7447 43.1632 71.148 43.7444 70.0724 45.1326C69.145 46.3297 67.0886 45.8222 66.3157 46.4201C63.7902 48.3741 62.706 51.9764 62.6856 56.0817C62.6713 58.953 63.0543 60.4036 63.9091 64.0276C64.5582 66.7794 67.5615 70.3348 69.2172 71.9201C69.6616 72.3456 70.9074 73.5386 71.783 73.1758C72.6127 72.8319 72.6373 71.287 72.6383 71.083C72.6418 70.3814 72.4505 69.5134 70.9277 67.316C69.3281 65.0078 68.6929 64.7445 68.7895 63.9676C68.9604 62.5941 71.2041 61.3359 72.2106 61.8748Z" fill="#2F2E41"/>
<path d="M27.466 216.345C26.915 220.848 28.8418 224.777 31.7697 225.12C34.6975 225.463 37.5177 222.091 38.0688 217.588C38.3099 215.617 38.0763 213.756 37.4918 212.257L39.582 193.147L30.3986 192.378L29.3128 211.298C28.3833 212.619 27.7072 214.374 27.466 216.345Z" fill="#FFB6B6"/>
<path d="M53.9088 89.4351C53.9088 89.4351 49.151 89.4997 45.9986 95.5205C44.3234 98.7199 33.4347 156.065 33.4347 156.065L30.3757 174.201L31.9478 177.201C29.4486 180.942 28.7606 185.571 30.0671 189.854L27.0784 207.574L41.1323 207.648L52.1 161.229L61.322 134.307L53.9088 89.4351Z" fill="#E6E6E6"/>
<path d="M125.71 215.645C126.261 220.149 124.334 224.077 121.406 224.42C118.478 224.764 115.658 221.391 115.107 216.888C114.866 214.917 115.1 213.056 115.684 211.557L113.594 192.447L122.777 191.678L123.863 210.599C124.793 211.92 125.469 213.674 125.71 215.645Z" fill="#FFB6B6"/>
<path d="M99.2671 88.7358C99.2671 88.7358 104.025 88.8005 107.177 94.8213C108.852 98.0207 119.741 155.365 119.741 155.365L122.8 173.502L121.228 176.502C123.727 180.243 124.415 184.872 123.109 189.155L126.098 206.875L112.044 206.949L101.076 160.529L91.8539 133.608L99.2671 88.7358Z" fill="#E6E6E6"/>
<path d="M529.264 64.2378C529.847 65.1729 532.944 61.7516 537.699 61.3743C538.91 61.2759 541.639 65.8127 544.77 65.8784C546.844 65.9194 548.122 65.903 550.677 65.8784C553.696 65.8455 554.523 65.7799 555.107 65.0581C556.236 63.6553 555.306 61.1616 555.845 60.9566C556.296 60.7843 557.462 62.3265 558.06 64.2378C559.316 68.249 554.811 73.8353 554.368 79.0032C553.896 84.573 558.548 73.9009 558.06 79.0032C557.514 84.7453 555.557 84.3105 555.579 86.3859C555.587 86.6976 555.668 86.9682 555.845 87.2062C556 87.4195 556.155 87.5015 558.799 88.0265C561.959 88.6581 563.546 88.9698 563.967 88.8468C565.053 88.535 566.153 86.8042 566.921 85.5656C568.191 83.5394 567.29 85.5819 566.921 83.1047C566.566 80.7094 565.459 80.3977 565.444 78.1829C565.429 75.3938 567.179 74.549 568.397 71.6205C570.649 66.2065 568.449 59.9394 567.659 57.6754C567.28 56.5896 566.591 55.2155 565.385 52.9451C564.417 51.1224 563.132 49.5168 561.564 48.3137C559.215 46.5106 556.487 45.2751 553.536 44.7856C551.92 44.5174 550.273 44.6583 548.684 45.0823L544.569 46.1808C542.839 46.6425 541.209 47.4794 539.771 48.6433C538.431 48.6482 537.269 49.6105 536.809 51.009C536.761 51.1554 536.718 51.2406 536.682 51.2281C529.264 48.6521 529.269 56.2818 529.35 61.048C529.358 61.5359 529.343 61.9676 529.286 62.3182V62.3429C529.138 63.2862 529.101 63.9753 529.264 64.2378Z" fill="#2F2E41"/>
<path d="M432.838 106.375H354.747V107.773H432.838V106.375Z" fill="#3F3D56"/>
<path d="M448.556 116.144C443.04 116.144 438.554 111.752 438.554 106.354C438.554 100.956 443.04 96.5649 448.556 96.5649C454.071 96.5649 458.558 100.956 458.558 106.354C458.558 111.752 454.071 116.144 448.556 116.144ZM448.556 97.9634C443.829 97.9634 439.983 101.728 439.983 106.354C439.983 110.981 443.829 114.745 448.556 114.745C453.283 114.745 457.129 110.981 457.129 106.354C457.129 101.728 453.283 97.9634 448.556 97.9634Z" fill="#3F3D56"/>
<path d="M448.556 111.249C451.318 111.249 453.557 109.058 453.557 106.355C453.557 103.651 451.318 101.46 448.556 101.46C445.794 101.46 443.555 103.651 443.555 106.355C443.555 109.058 445.794 111.249 448.556 111.249Z" fill="#34E8BD"/>
<path d="M254.451 158.119H176.36V159.518H254.451V158.119Z" fill="#3F3D56"/>
<path d="M150.64 158.099C150.64 152.701 155.127 148.31 160.642 148.31C166.158 148.31 170.644 152.701 170.644 158.099C170.644 163.497 166.158 167.889 160.642 167.889C155.127 167.889 150.64 163.497 150.64 158.099ZM152.069 158.099C152.069 162.726 155.915 166.49 160.642 166.49C165.369 166.49 169.215 162.726 169.215 158.099C169.215 153.472 165.369 149.708 160.642 149.708C155.915 149.708 152.069 153.472 152.069 158.099Z" fill="#3F3D56"/>
<path d="M160.642 162.994C163.404 162.994 165.643 160.802 165.643 158.099C165.643 155.396 163.404 153.204 160.642 153.204C157.88 153.204 155.641 155.396 155.641 158.099C155.641 160.802 157.88 162.994 160.642 162.994Z" fill="#34E8BD"/>
</g>
<defs>
<clipPath id="clip0_84_45">
<rect width="608" height="369" fill="white"/>
</clipPath>
</defs>
</svg>
