<svg width="150" height="150" viewBox="0 0 150 150" fill="none" xmlns="http://www.w3.org/2000/svg">
<g id="logo 1">
<g id="Group">
<path id="Vector" d="M87.65 1.51501C81.6 2.62611 74.65 5.4544 69.25 8.88874C61.65 13.7372 53.9 22.6766 50.1 30.9594C45.85 40.1514 44.1 52.2221 45.7 60.8584C46.55 65.4544 48.4 72.0706 49.25 73.7372C49.6 74.4443 50.65 76.4645 51.55 78.2827C53.35 81.9191 58.35 88.6362 61.3 91.4645C63.7 93.7372 68.45 97.2726 71.75 99.2928C74.25 100.757 81.8 103.889 84.1 104.293C84.7 104.394 86.8 104.899 88.65 105.353C93 106.414 104 106.111 109.25 104.798C113.55 103.687 120.1 100.959 124.75 98.2322C128.75 95.909 139.2 85.8584 140.95 82.5756C141.55 81.4645 142.75 79.2928 143.55 77.7776C148.7 68.3837 150.75 54.9999 148.75 43.8887C147.85 38.8382 145.65 32.3231 144.85 32.3231C144.5 32.3231 133.75 42.9291 120.95 55.8584C99.4 77.6261 97.55 79.3938 96.65 78.7372C96.15 78.3332 91.5 73.6867 86.35 68.3837L77 58.7372V44.7978C77 33.9392 77.15 30.8079 77.65 30.8079C77.95 30.8079 82.4 35.1009 87.5 40.4039C92.6 45.6564 97 49.9999 97.25 49.9999C97.55 49.9999 105.65 42.0201 115.25 32.2726L132.75 14.5958L130.75 12.7776C120 3.08066 102.9 -1.36378 87.65 1.51501Z" fill="#034F86"/>
<path id="Vector_2" d="M25.4 108.939C9.05003 125.505 2.35003 132.626 1.80003 134.04C0.0500316 138.384 1.30003 144.091 4.60003 146.616C8.45003 149.596 12.95 150.101 17 147.98C18.85 146.97 63 102.576 63 101.667C63 101.364 61.8 100.202 60.3 99.0404C57.95 97.2727 53.75 92.7273 49.5 87.4242L48.25 85.8586L25.4 108.939Z" fill="#034F86"/>
</g>
</g>
</svg>
