<svg xmlns="http://www.w3.org/2000/svg" width="80" height="80" viewBox="0 0 80 80" fill="none">
<path d="M9.99976 73.3333H69.9998" stroke="#34E8BD" stroke-width="3" stroke-linecap="round" stroke-linejoin="round"/>
<path d="M18.6663 27.9333H13.3331C11.4998 27.9333 9.99976 29.4333 9.99976 31.2667V60C9.99976 61.8333 11.4998 63.3333 13.3331 63.3333H18.6663C20.4997 63.3333 21.9997 61.8333 21.9997 60V31.2667C21.9997 29.4333 20.4997 27.9333 18.6663 27.9333Z" stroke="#34E8BD" stroke-width="3" stroke-linecap="round" stroke-linejoin="round"/>
<path d="M42.6661 17.3H37.3328C35.4995 17.3 33.9995 18.8 33.9995 20.6334V60C33.9995 61.8334 35.4995 63.3334 37.3328 63.3334H42.6661C44.4994 63.3334 45.9994 61.8334 45.9994 60V20.6334C45.9994 18.8 44.4994 17.3 42.6661 17.3Z" stroke="#34E8BD" stroke-width="3" stroke-linecap="round" stroke-linejoin="round"/>
<path d="M66.6661 6.66675H61.3328C59.4995 6.66675 57.9995 8.16675 57.9995 10.0001V60.0001C57.9995 61.8334 59.4995 63.3334 61.3328 63.3334H66.6661C68.4994 63.3334 69.9994 61.8334 69.9994 60.0001V10.0001C69.9994 8.16675 68.4994 6.66675 66.6661 6.66675Z" stroke="#34E8BD" stroke-width="3" stroke-linecap="round" stroke-linejoin="round"/>
</svg>