<svg xmlns="http://www.w3.org/2000/svg" width="80" height="80" viewBox="0 0 80 80" fill="none">
<path d="M40 46.6667H43.3333C47 46.6667 50 43.6667 50 40.0001V6.66675H20C15 6.66675 10.6334 9.43337 8.3667 13.5" stroke="#34E8BD" stroke-width="3" stroke-linecap="round" stroke-linejoin="round"/>
<path d="M6.66663 56.6667C6.66663 62.2001 11.1333 66.6667 16.6666 66.6667H20C20 63.0001 23 60.0001 26.6666 60.0001C30.3333 60.0001 33.3333 63.0001 33.3333 66.6667H46.6666C46.6666 63.0001 49.6666 60.0001 53.3333 60.0001C57 60.0001 60 63.0001 60 66.6667H63.3333C68.8666 66.6667 73.3333 62.2001 73.3333 56.6667V46.6667H63.3333C61.5 46.6667 60 45.1667 60 43.3334V33.3334C60 31.5001 61.5 30.0001 63.3333 30.0001H67.6332L61.9333 20.0334C60.7333 17.9668 58.5334 16.6667 56.1334 16.6667H50V40.0001C50 43.6667 47 46.6667 43.3333 46.6667H40" stroke="#34E8BD" stroke-width="3" stroke-linecap="round" stroke-linejoin="round"/>
<path d="M26.6667 73.3333C30.3486 73.3333 33.3333 70.3486 33.3333 66.6667C33.3333 62.9848 30.3486 60 26.6667 60C22.9848 60 20 62.9848 20 66.6667C20 70.3486 22.9848 73.3333 26.6667 73.3333Z" stroke="#34E8BD" stroke-width="3" stroke-linecap="round" stroke-linejoin="round"/>
<path d="M53.3333 73.3333C57.0152 73.3333 60 70.3486 60 66.6667C60 62.9848 57.0152 60 53.3333 60C49.6514 60 46.6666 62.9848 46.6666 66.6667C46.6666 70.3486 49.6514 73.3333 53.3333 73.3333Z" stroke="#34E8BD" stroke-width="3" stroke-linecap="round" stroke-linejoin="round"/>
<path d="M73.3333 40V46.6667H63.3333C61.5 46.6667 60 45.1667 60 43.3333V33.3333C60 31.5 61.5 30 63.3333 30H67.6333L73.3333 40Z" stroke="#34E8BD" stroke-width="3" stroke-linecap="round" stroke-linejoin="round"/>
<path d="M6.66663 26.6667H26.6666" stroke="#34E8BD" stroke-width="3" stroke-linecap="round" stroke-linejoin="round"/>
<path d="M6.66663 36.6667H20" stroke="#34E8BD" stroke-width="3" stroke-linecap="round" stroke-linejoin="round"/>
<path d="M6.66663 46.6667H13.3333" stroke="#34E8BD" stroke-width="3" stroke-linecap="round" stroke-linejoin="round"/>
</svg>