 <svg  version="1.0" xmlns="http://www.w3.org/2000/svg"  width="300.000000pt" height="297.000000pt" viewBox="0 0 300.000000 297.000000"  preserveAspectRatio="xMidYMid meet">  <g transform="translate(0.000000,297.000000) scale(0.100000,-0.100000)" fill="#64ffda" stroke="none"> <path d="M1753 2940 c-121 -22 -260 -78 -368 -146 -152 -96 -307 -273 -383 -437 -85 -182 -120 -421 -88 -592 17 -91 54 -222 71 -255 7 -14 28 -54 46 -90 36 -72 136 -205 195 -261 48 -45 143 -115 209 -155 50 -29 201 -91 247 -99 12 -2 54 -12 91 -21 87 -21 307 -15 412 11 86 22 217 76 310 130 80 46 289 245 324 310 12 22 36 65 52 95 103 186 144 451 104 671 -18 100 -62 229 -78 229 -7 0 -222 -210 -478 -466 -431 -431 -468 -466 -486 -453 -10 8 -103 100 -206 205 l-187 191 0 276 c0 215 3 277 13 277 6 0 95 -85 197 -190 102 -104 190 -190 195 -190 6 0 168 158 360 351 l350 350 -40 36 c-215 192 -557 280 -862 223z"/> <path d="M508 813 c-327 -328 -461 -469 -472 -497 -35 -86 -10 -199 56 -249 77 -59 167 -69 248 -27 37 20 920 899 920 917 0 6 -24 29 -54 52 -47 35 -131 125 -216 230 l-25 31 -457 -457z"/> </g> </svg> 